<svg width="502" height="534" viewBox="0 0 502 534" fill="none" xmlns="http://www.w3.org/2000/svg">
<rect width="502" height="534" fill="#F5F5F5"/>
<rect width="768" height="765" transform="translate(-141 -105)" fill="white"/>
<mask id="path-1-inside-1_0_1" fill="white">
<path d="M0.499756 146.517L250.5 0.500031L502 146.517V385.017L250.5 534L0.499756 389V146.517Z"/>
<path fill-rule="evenodd" clip-rule="evenodd" d="M250.856 532.556V294.099L350.203 236.741L399.934 256.18L400.168 397.992L350.203 475.198L250.856 532.556ZM333.976 294.26L300.529 313.571V455.518L333.976 436.208L350.203 411.874V300.426L333.976 294.26Z"/>
<path d="M449.548 179.47L399.854 208.075L399.934 256.18L400.168 397.992L400.248 446.304L449.548 417.841V322.688L498.847 294.225V246.648L449.548 275.111V227.535L498.847 199.072V151.007L449.548 179.47Z"/>
<path d="M2.86097 389.378V150.921L52.5424 179.604L69.1029 205.713L85.9945 198.918L135.676 227.602V466.059L85.6633 437.184L85.9945 326.316L69.1029 333.128L52.5424 307.003V418.062L2.86097 389.378Z"/>
<path fill-rule="evenodd" clip-rule="evenodd" d="M135.676 227.602V466.059L184.984 494.527V399.339L217.918 418.274L250.852 404.922V326.465L217.918 275.084L135.676 227.602ZM184.984 365.39V289.757L201.584 316.143V358.782L184.984 365.39Z"/>
<path d="M3.22343 148.852L126.708 220.146L250.193 148.852L126.708 77.5578L3.22343 148.852Z"/>
<path d="M373.678 77.5577L250.193 6.26363L126.708 77.5578L250.193 148.852L373.678 77.5577Z"/>
<path d="M126.708 220.146L250.193 291.44L373.678 220.146L250.193 148.852L126.708 220.146Z"/>
<path d="M497.164 148.852L373.678 77.5577L250.193 148.852L373.678 220.146L497.164 148.852Z"/>
<path d="M250.2 169.49C215.324 169.49 187.051 186.025 187.051 206.422C187.051 243.354 250.2 262.19 250.2 262.19C250.2 262.19 313.349 243.354 313.349 206.422C313.349 186.025 285.076 169.49 250.2 169.49Z"/>
<path d="M235.044 270.315L250.2 262.19L266.619 270.315L235.044 270.315Z"/>
<path d="M358.79 110.032C356.618 110.032 354.857 110.964 354.857 112.113C354.857 113.009 355.928 113.773 357.429 114.066L353.31 121.764C353.31 121.764 349.886 123.228 347.073 123.574C346.521 123.615 345.939 123.637 345.327 123.637C332.469 123.637 332.317 113.073 332.317 112.113C332.317 111.423 332.864 111.188 333.732 110.813C334.073 110.666 334.463 110.498 334.889 110.272C336.402 109.472 337.763 108.272 334.889 108.272C332.015 108.272 327.174 110.769 331.41 119.795C331.41 119.795 329.594 127.638 331.41 128.598C332.452 129.149 335.239 128.672 338.197 128.165C340.392 127.79 342.68 127.398 344.419 127.398C348.504 127.398 353.496 130.919 353.496 130.919V142.602L348.504 150.525L332.317 183.575L326.72 186.456L330.199 186.456L332.317 185.896L334.738 186.456H338.066C338.066 186.456 334.738 185.016 334.738 184.535C334.738 184.055 355.812 155.471 355.812 155.471L358.231 164.201L364.638 150.525C364.638 149.004 362.724 142.602 362.724 142.602C362.724 142.602 362.724 135.92 362.724 134.52C362.724 133.119 361.929 131.512 366.959 131.559C371.989 131.606 368.949 131.63 369.772 131.761V142.907L364.638 150.525L358.231 164.201L348.594 183.88L342.997 186.761H346.476L348.594 186.2L351.014 186.761H354.342C354.342 186.761 351.014 185.32 351.014 184.84C351.014 184.619 355.47 178.377 360.28 171.705C361.924 169.424 363.61 167.093 365.173 164.935C366.507 163.092 367.752 161.375 368.806 159.924C370.749 157.246 375.098 155.471 375.098 155.471C375.098 155.471 379.437 156.93 381.37 159.592C382.41 161.026 383.639 162.72 384.957 164.54C386.577 166.776 388.331 169.202 390.036 171.568C394.799 178.177 399.181 184.316 399.181 184.535C399.181 185.016 395.853 186.456 395.853 186.456H399.181L401.601 185.896L403.719 186.456H407.199L401.601 183.575L392.07 164.115L385.415 150.525L380.423 142.907V132.066C381.246 131.935 378.358 131.956 383.236 131.864C388.114 131.771 387.471 133.333 387.471 134.825C387.471 136.316 387.471 142.907 387.471 142.907C387.471 142.907 385.415 149.004 385.415 150.525L392.07 164.115L394.43 155.471C394.43 155.471 415.457 184.36 415.457 184.84C415.457 185.32 412.129 186.761 412.129 186.761H415.457L417.878 186.2L419.996 186.761H423.475L417.878 183.88L401.691 150.829L396.699 142.907V130.919C396.699 130.919 401.739 127.398 405.824 127.398C407.552 127.398 409.81 127.785 411.991 128.158L412.109 128.178C415.039 128.68 417.752 129.145 418.785 128.598C420.601 127.638 418.785 120.1 418.785 120.1C423.021 111.073 418.18 108.576 415.306 108.576C412.432 108.576 413.793 109.777 415.306 110.577C415.732 110.802 416.122 110.971 416.463 111.118C417.331 111.492 417.878 111.728 417.878 112.418C417.878 113.378 417.726 123.941 404.868 123.941C404.283 123.941 403.725 123.921 403.195 123.883C400.054 123.624 398.505 123.232 396.416 121.759C392.405 118.934 392.766 114.37 392.766 114.37C394.267 114.077 395.338 113.313 395.338 112.418C395.338 111.268 393.577 110.337 391.405 110.337C389.232 110.337 387.471 111.268 387.471 112.418C387.471 113.401 388.762 114.226 390.497 114.443C390.497 114.443 390.345 120.258 387.471 123.573C375.962 123.573 376.481 115.969 376.481 114.36C377.955 114.059 379 113.303 379 112.418C379 111.268 377.239 110.337 375.067 110.337C372.895 110.337 371.134 111.268 371.134 112.418C371.134 113.313 372.204 114.077 373.705 114.37C373.705 114.37 375.057 123.43 362.724 123.677C359.168 120.526 359.698 114.138 359.698 114.138C361.433 113.921 362.724 113.097 362.724 112.113C362.724 110.964 360.963 110.032 358.79 110.032Z"/>
<path d="M390.036 171.568C388.331 169.202 386.577 166.776 384.957 164.54L384.326 183.88L378.395 186.761H381.874L383.992 186.2L386.413 186.761H389.741L386.675 184.535C386.675 184.055 386.675 183.88 386.675 183.88L390.036 171.568Z"/>
<path d="M365.173 164.935C363.61 167.093 361.924 169.424 360.28 171.705L363.783 183.88C363.783 183.88 363.783 184.055 363.783 184.535L360.454 186.456H363.783L366.203 185.896L368.321 186.456H371.8L366.203 183.88L365.173 164.935Z"/>
<path d="M250.431 29.5553C218.64 29.5553 192.868 44.6023 192.868 63.1637C192.868 74.2146 207.748 88.198 216.469 97.1081C218.771 99.4607 221.65 102.439 221.65 104.838V109.543C221.65 113.256 226.804 113.629 233.162 113.629L267.7 113.629C274.058 113.629 279.213 113.256 279.213 109.543V104.838C279.213 102.439 282.091 100.133 285.12 97.1081C293.993 88.2494 307.994 74.2146 307.994 63.1637C307.994 44.6023 282.222 29.5553 250.431 29.5553Z"/>
<path d="M274.346 122.467L226.517 122.467C223.829 122.467 221.65 121.195 221.65 119.626C221.65 118.056 223.829 116.784 226.517 116.784L274.346 116.784C277.034 116.784 279.213 118.056 279.213 119.626C279.213 121.195 277.034 122.467 274.346 122.467Z"/>
<path d="M262.833 130.38L238.029 130.38C235.341 130.38 233.162 129.108 233.162 127.539C233.162 125.969 235.341 124.697 238.029 124.697H262.833C265.521 124.697 267.7 125.969 267.7 127.539C267.7 129.108 265.521 130.38 262.833 130.38Z"/>
<path d="M45.505 161.476C45.5051 172.841 61.3723 182.053 80.9455 182.053C86.4344 182.053 91.6318 181.329 96.2697 180.036C101.483 187.631 114.264 192.999 129.205 192.999C143.162 192.999 155.234 188.314 161.013 181.506C163.632 181.864 166.363 182.053 169.169 182.053C188.743 182.053 204.61 172.841 204.61 161.476C204.61 158.565 203.569 155.795 201.691 153.285C209.841 149.918 215.167 144.351 215.167 138.053C215.167 127.777 200.987 119.446 183.496 119.446C182.022 119.446 180.572 119.505 179.151 119.62C176.332 111.04 163.482 104.56 148.056 104.56C139.061 104.56 131.047 106.48 125.23 109.939C118.098 107.091 109.453 105.423 100.135 105.423C75.6856 105.423 55.8658 116.905 55.8658 131.069C55.8658 135.707 57.0022 140.035 61.0661 144.457C51.9687 148.197 45.505 154.537 45.505 161.476Z"/>
</mask>
<path d="M397.434 256.184L397.668 397.996L402.668 397.987L402.434 256.175L397.434 256.184ZM133.176 227.602V466.059H138.176V227.602H133.176ZM127.958 222.311L251.443 151.017L248.943 146.687L125.458 217.981L127.958 222.311ZM251.443 146.687L127.958 75.3927L125.458 79.7228L248.943 151.017L251.443 146.687ZM374.928 217.981L251.443 146.687L248.943 151.017L372.428 222.311L374.928 217.981ZM360.495 165.262L366.901 151.585L362.374 149.464L355.967 163.141L360.495 165.262ZM362.308 173.167C363.951 170.888 365.635 168.558 367.197 166.401L363.148 163.468C361.584 165.628 359.897 167.96 358.252 170.243L362.308 173.167ZM382.933 166.006C384.551 168.241 386.304 170.666 388.008 173.03L392.064 170.106C390.357 167.738 388.602 165.311 386.982 163.074L382.933 166.006ZM394.316 163.015L387.66 149.425L383.17 151.624L389.825 165.214L394.316 163.015ZM251.443 151.017L374.928 79.7228L372.428 75.3927L248.943 146.687L251.443 151.017ZM250.5 0.500031L253.01 -3.82403L250.492 -5.28594L247.978 -3.81748L250.5 0.500031ZM0.499756 146.517L-2.02196 142.199L-4.50024 143.647V146.517H0.499756ZM502 146.517H507V143.638L504.51 142.193L502 146.517ZM0.499756 389H-4.50024V391.88L-2.00883 393.325L0.499756 389ZM502 385.017L504.548 389.319L507 387.867V385.017H502ZM250.5 534L247.991 538.325L250.527 539.796L253.048 538.302L250.5 534ZM250.856 532.556H245.856V541.216L253.356 536.886L250.856 532.556ZM250.856 294.099L248.356 289.768L245.856 291.212V294.099H250.856ZM350.203 236.741L352.023 232.084L349.784 231.209L347.703 232.411L350.203 236.741ZM399.934 256.18L398.113 260.837L404.946 263.507L404.934 256.171L399.934 256.18ZM400.168 397.992L405.168 397.983L405.141 381.106L395.971 395.275L400.168 397.992ZM350.203 475.198L352.703 479.528L353.746 478.926L354.4 477.915L350.203 475.198ZM333.976 294.26L335.752 289.586L333.532 288.743L331.476 289.93L333.976 294.26ZM300.529 313.571L298.029 309.24L295.529 310.684V313.571H300.529ZM300.529 455.518H295.529V464.178L303.029 459.848L300.529 455.518ZM333.976 436.208L336.476 440.538L337.488 439.954L338.136 438.982L333.976 436.208ZM350.203 411.874L354.363 414.648L355.203 413.388V411.874H350.203ZM350.203 300.426H355.203V296.977L351.978 295.752L350.203 300.426ZM449.548 179.47L452.042 183.803L452.048 183.8L449.548 179.47ZM399.854 208.075L397.36 203.741L394.849 205.186L394.854 208.083L399.854 208.075ZM400.248 446.304L395.248 446.312L395.263 454.956L402.748 450.634L400.248 446.304ZM449.548 417.841L452.048 422.171L454.548 420.728V417.841H449.548ZM449.548 322.688L447.048 318.358L444.548 319.801V322.688H449.548ZM498.847 294.225L501.347 298.555L503.847 297.112V294.225H498.847ZM498.847 246.648H503.847V237.988L496.347 242.318L498.847 246.648ZM449.548 275.111H444.548V283.772L452.048 279.442L449.548 275.111ZM449.548 227.535L447.048 223.205L444.548 224.648V227.535H449.548ZM498.847 199.072L501.347 203.402L503.847 201.958V199.072H498.847ZM498.847 151.007H503.847V142.346L496.347 146.677L498.847 151.007ZM2.86097 389.378H-2.13903V392.265L0.360973 393.708L2.86097 389.378ZM2.86097 150.921L5.36097 146.591L-2.13903 142.261V150.921H2.86097ZM52.5424 179.604L56.7646 176.926L56.1065 175.889L55.0424 175.274L52.5424 179.604ZM69.1029 205.713L64.8806 208.391L67.109 211.904L70.9688 210.352L69.1029 205.713ZM85.9945 198.918L88.4945 194.588L86.3867 193.371L84.1286 194.279L85.9945 198.918ZM135.676 227.602L133.176 231.932L135.676 227.602ZM135.676 466.059L138.176 461.729L135.676 466.059ZM85.6633 437.184L80.6634 437.169L80.6547 440.066L83.1633 441.514L85.6633 437.184ZM85.9945 326.316L90.9945 326.331L91.0167 318.9L84.1246 321.679L85.9945 326.316ZM69.1029 333.128L64.8798 335.805L67.1098 339.323L70.9728 337.765L69.1029 333.128ZM52.5424 307.003L56.7654 304.326L47.5424 289.776V307.003H52.5424ZM52.5424 418.062L50.0424 422.392L57.5424 426.722V418.062H52.5424ZM184.984 494.527L182.484 498.857L189.984 503.187V494.527H184.984ZM184.984 399.339L187.476 395.005L179.984 390.697V399.339H184.984ZM217.918 418.274L215.426 422.609L217.538 423.823L219.796 422.908L217.918 418.274ZM250.852 404.922L252.731 409.556L255.852 408.29V404.922H250.852ZM250.852 326.465H255.852V325L255.061 323.767L250.852 326.465ZM217.918 275.084L222.127 272.386L221.471 271.362L220.418 270.754L217.918 275.084ZM184.984 365.39H179.984V372.762L186.833 370.035L184.984 365.39ZM184.984 289.757L189.216 287.095L179.984 272.421V289.757H184.984ZM201.584 316.143H206.584V314.701L205.816 313.481L201.584 316.143ZM201.584 358.782L203.434 363.428L206.584 362.173V358.782H201.584ZM3.22343 148.852L0.723427 144.522L-6.77657 148.852L0.723429 153.182L3.22343 148.852ZM126.708 220.146L129.208 215.816L126.708 220.146ZM126.708 77.5578L124.208 73.2276L126.708 77.5578ZM373.678 77.5577L376.178 73.2276L373.678 77.5577ZM250.193 6.26363L252.693 1.9335L250.193 0.490126L247.693 1.9335L250.193 6.26363ZM250.193 291.44L247.693 295.77L250.193 297.214L252.693 295.77L250.193 291.44ZM373.678 220.146L371.178 215.816L373.678 220.146ZM497.164 148.852L499.664 153.182L507.164 148.852L499.664 144.522L497.164 148.852ZM250.2 169.49V164.49V169.49ZM187.051 206.422H192.051H187.051ZM313.349 206.422H318.349H313.349ZM235.044 270.315L232.682 265.908L235.044 275.315V270.315ZM266.619 270.315V275.315L268.836 265.833L266.619 270.315ZM358.79 110.032V105.032V110.032ZM354.857 112.113H359.857H354.857ZM357.429 114.066L361.838 116.424L365.032 110.455L358.387 109.158L357.429 114.066ZM353.31 121.764L355.276 126.361L356.89 125.67L357.719 124.122L353.31 121.764ZM347.073 123.574L347.446 128.56L347.564 128.551L347.682 128.536L347.073 123.574ZM345.327 123.637V118.637V123.637ZM332.317 112.113H337.317H332.317ZM333.732 110.813L335.712 115.404L333.732 110.813ZM334.889 110.272L337.227 114.692L334.889 110.272ZM334.889 108.272V113.272V108.272ZM331.41 119.795L336.281 120.923L336.671 119.238L335.936 117.671L331.41 119.795ZM331.41 128.598L333.748 124.178L331.41 128.598ZM338.197 128.165L339.041 133.094L338.197 128.165ZM353.496 130.919H358.496V128.327L356.378 126.833L353.496 130.919ZM353.496 142.602L357.726 145.268L358.496 144.046V142.602H353.496ZM348.504 150.525L344.273 147.859L344.131 148.086L344.013 148.326L348.504 150.525ZM332.317 183.575L334.605 188.021L336.079 187.263L336.808 185.774L332.317 183.575ZM326.72 186.456L324.432 182.01L326.72 191.456L326.72 186.456ZM330.199 186.456L330.199 191.456H330.85L331.478 191.29L330.199 186.456ZM332.317 185.896L333.445 181.025L332.237 180.745L331.039 181.062L332.317 185.896ZM334.738 186.456L333.61 191.327L334.167 191.456H334.738V186.456ZM338.066 186.456V191.456L340.052 181.867L338.066 186.456ZM355.812 155.471L360.63 154.136L357.886 144.232L351.787 152.504L355.812 155.471ZM358.231 164.201L362.722 166.4L363.557 164.695L363.05 162.866L358.231 164.201ZM364.638 150.525H359.638V166.889L368.784 153.32L364.638 150.525ZM362.724 142.602H357.724V143.334L357.933 144.035L362.724 142.602ZM366.959 131.559L366.913 136.559L366.959 131.559ZM369.772 131.761H374.772V127.492L370.557 126.823L369.772 131.761ZM369.772 142.907L373.918 145.702L374.772 144.435V142.907H369.772ZM348.594 183.88L350.882 188.325L352.355 187.567L353.084 186.079L348.594 183.88ZM342.997 186.761L340.708 182.315L342.997 191.761V186.761ZM346.476 186.761V191.761H347.126L347.754 191.594L346.476 186.761ZM348.594 186.2L349.721 181.329L348.514 181.05L347.315 181.367L348.594 186.2ZM351.014 186.761L349.887 191.632L350.443 191.761H351.014V186.761ZM354.342 186.761V191.761L356.328 182.172L354.342 186.761ZM351.014 184.84H346.014H351.014ZM360.28 171.705L365.085 170.323L362.24 160.435L356.224 168.781L360.28 171.705ZM365.173 164.935L361.123 162.002L360.084 163.437L360.18 165.206L365.173 164.935ZM368.806 159.924L364.759 156.987L368.806 159.924ZM375.098 155.471L376.691 150.732L374.929 150.139L373.208 150.842L375.098 155.471ZM381.37 159.592L385.416 156.655L381.37 159.592ZM384.957 164.54L389.955 164.703L390.01 162.993L389.007 161.608L384.957 164.54ZM390.036 171.568L394.092 168.644L387.97 160.15L385.212 170.251L390.036 171.568ZM399.181 184.535H394.181H399.181ZM395.853 186.456L393.867 181.867L395.853 191.456V186.456ZM399.181 186.456V191.456H399.752L400.308 191.327L399.181 186.456ZM401.601 185.896L402.88 181.062L401.682 180.745L400.474 181.025L401.601 185.896ZM403.719 186.456L402.441 191.29L403.069 191.456H403.719V186.456ZM407.199 186.456V191.456L409.487 182.01L407.199 186.456ZM401.601 183.575L397.111 185.774L397.84 187.263L399.313 188.021L401.601 183.575ZM392.07 164.115L387.247 162.798L386.75 164.619L387.58 166.314L392.07 164.115ZM385.415 150.525L381.233 153.265L390.415 167.277V150.525H385.415ZM380.423 142.907H375.423V144.399L376.241 145.648L380.423 142.907ZM380.423 132.066L379.638 127.127L375.423 127.797V132.066H380.423ZM383.236 131.864L383.331 136.863L383.236 131.864ZM387.471 142.907L392.209 144.505L392.471 143.728V142.907H387.471ZM394.43 155.471L398.473 152.529L392.348 144.113L389.607 154.154L394.43 155.471ZM412.129 186.761L410.143 182.172L412.129 191.761V186.761ZM415.457 186.761V191.761H416.028L416.585 191.632L415.457 186.761ZM417.878 186.2L419.156 181.367L417.958 181.05L416.75 181.329L417.878 186.2ZM419.996 186.761L418.717 191.594L419.346 191.761H419.996V186.761ZM423.475 186.761V191.761L425.763 182.315L423.475 186.761ZM417.878 183.88L413.387 186.079L414.116 187.567L415.59 188.325L417.878 183.88ZM401.691 150.829L406.182 148.63L406.064 148.39L405.922 148.164L401.691 150.829ZM396.699 142.907H391.699V144.351L392.469 145.573L396.699 142.907ZM396.699 130.919L393.836 126.82L391.699 128.313V130.919H396.699ZM405.824 127.398V132.398V127.398ZM411.991 128.158L412.836 123.23L412.836 123.23L411.991 128.158ZM412.109 128.178L411.265 133.106L411.265 133.106L412.109 128.178ZM418.785 128.598L421.123 133.018L418.785 128.598ZM418.785 120.1L414.259 117.976L413.514 119.565L413.924 121.271L418.785 120.1ZM415.306 108.576V103.576V108.576ZM415.306 110.577L412.968 114.997V114.997L415.306 110.577ZM416.463 111.118L414.483 115.709L414.483 115.709L416.463 111.118ZM417.878 112.418H422.878H417.878ZM404.868 123.941V128.941V123.941ZM403.195 123.883L402.782 128.866L402.81 128.869L402.839 128.871L403.195 123.883ZM396.416 121.759L399.299 117.673L399.295 117.671L396.416 121.759ZM392.766 114.37L391.808 109.463L388.081 110.19L387.782 113.976L392.766 114.37ZM395.338 112.418H390.338H395.338ZM391.405 110.337V115.337V110.337ZM387.471 112.418H382.471H387.471ZM390.497 114.443L395.495 114.573L395.614 110.043L391.117 109.481L390.497 114.443ZM387.471 123.573V128.573H389.755L391.25 126.848L387.471 123.573ZM376.481 114.36L375.482 109.46L371.482 110.276L371.481 114.358L376.481 114.36ZM379 112.418H374H379ZM371.134 112.418H366.134H371.134ZM373.705 114.37L378.651 113.632L378.13 110.139L374.663 109.463L373.705 114.37ZM362.724 123.677L359.407 127.419L360.87 128.715L362.824 128.676L362.724 123.677ZM359.698 114.138L359.078 109.177L355.051 109.68L354.715 113.725L359.698 114.138ZM362.724 112.113H367.724H362.724ZM384.326 183.88L386.511 188.377L389.225 187.059L389.323 184.043L384.326 183.88ZM378.395 186.761L376.21 182.263L378.395 191.761V186.761ZM381.874 186.761V191.761H382.524L383.153 191.594L381.874 186.761ZM383.992 186.2L385.12 181.329L383.912 181.05L382.714 181.367L383.992 186.2ZM386.413 186.761L385.285 191.632L385.841 191.761H386.413V186.761ZM389.741 186.761V191.761H405.142L392.677 182.714L389.741 186.761ZM386.675 184.535H381.675V187.085L383.738 188.582L386.675 184.535ZM386.675 183.88L381.851 182.563L381.675 183.21V183.88H386.675ZM363.783 183.88H368.783V183.175L368.588 182.497L363.783 183.88ZM363.783 184.535L366.282 188.866L368.783 187.423V184.535H363.783ZM360.454 186.456L357.955 182.125L341.787 191.456H360.454V186.456ZM363.783 186.456V191.456H364.354L364.91 191.327L363.783 186.456ZM366.203 185.896L367.481 181.062L366.283 180.745L365.076 181.025L366.203 185.896ZM368.321 186.456L367.042 191.29L367.671 191.456H368.321V186.456ZM371.8 186.456V191.456L373.891 181.914L371.8 186.456ZM366.203 183.88L361.21 184.151L361.374 187.161L364.112 188.422L366.203 183.88ZM192.868 63.1637H187.868H192.868ZM216.469 97.1081L212.896 100.605L216.469 97.1081ZM221.65 104.838H226.65H221.65ZM221.65 109.543H216.65H221.65ZM233.162 113.629V118.629V113.629ZM267.7 113.629V108.629V113.629ZM279.213 109.543H274.213H279.213ZM279.213 104.838H284.213H279.213ZM285.12 97.1081L281.588 93.5698L285.12 97.1081ZM307.994 63.1637H302.994H307.994ZM274.346 122.467V117.467V122.467ZM226.517 122.467V127.467V122.467ZM221.65 119.626H226.65H221.65ZM226.517 116.784V111.784V116.784ZM274.346 116.784V121.784V116.784ZM279.213 119.626H284.213H279.213ZM262.833 130.38V125.38V130.38ZM238.029 130.38V135.38V130.38ZM238.029 124.697V119.697V124.697ZM262.833 124.697V129.697V124.697ZM45.505 161.476H40.505H45.505ZM80.9455 182.053V177.053V182.053ZM96.2697 180.036L100.392 177.206L98.3694 174.259L94.9266 175.219L96.2697 180.036ZM129.205 192.999V197.999V192.999ZM161.013 181.506L161.691 176.552L158.975 176.181L157.201 178.27L161.013 181.506ZM169.169 182.053V187.053V182.053ZM204.61 161.476H209.61H204.61ZM201.691 153.285L199.782 148.664L193.829 151.123L197.687 156.28L201.691 153.285ZM215.167 138.053H220.167H215.167ZM183.496 119.446V124.446V119.446ZM179.151 119.62L174.401 121.18L175.63 124.92L179.553 124.603L179.151 119.62ZM148.056 104.56V109.56V104.56ZM125.23 109.939L123.376 114.583L125.666 115.497L127.786 114.237L125.23 109.939ZM100.135 105.423V110.423V105.423ZM55.8658 131.069H60.8658H55.8658ZM61.0661 144.457L62.9675 149.081L69.6009 146.354L64.7474 141.073L61.0661 144.457ZM247.978 -3.81748L-2.02196 142.199L3.02148 150.835L253.022 4.81754L247.978 -3.81748ZM247.989 4.82409L499.49 150.841L504.51 142.193L253.01 -3.82403L247.989 4.82409ZM-4.50024 146.517V389H5.49976V146.517H-4.50024ZM497 146.517V385.017H507V146.517H497ZM253.048 538.302L504.548 389.319L499.452 380.715L247.952 529.698L253.048 538.302ZM253.009 529.675L3.00834 384.675L-2.00883 393.325L247.991 538.325L253.009 529.675ZM255.856 532.556V294.099H245.856V532.556H255.856ZM348.382 241.398L398.113 260.837L401.754 251.523L352.023 232.084L348.382 241.398ZM395.971 395.275L346.005 472.482L354.4 477.915L404.366 400.708L395.971 395.275ZM331.476 289.93L298.029 309.24L303.029 317.901L336.476 298.59L331.476 289.93ZM303.029 459.848L336.476 440.538L331.476 431.878L298.029 451.188L303.029 459.848ZM338.136 438.982L354.363 414.648L346.043 409.1L329.816 433.434L338.136 438.982ZM355.203 411.874V300.426H345.203V411.874H355.203ZM351.978 295.752L335.752 289.586L332.2 298.934L348.427 305.1L351.978 295.752ZM447.054 175.136L397.36 203.741L402.348 212.408L452.042 183.803L447.054 175.136ZM394.854 208.083L394.934 256.188L404.934 256.171L404.854 208.066L394.854 208.083ZM395.168 398L395.248 446.312L405.248 446.296L405.168 397.983L395.168 398ZM402.748 450.634L452.048 422.171L447.048 413.511L397.748 441.974L402.748 450.634ZM454.548 417.841V322.688H444.548V417.841H454.548ZM452.048 327.018L501.347 298.555L496.347 289.895L447.048 318.358L452.048 327.018ZM503.847 294.225V246.648H493.847V294.225H503.847ZM496.347 242.318L447.048 270.781L452.048 279.442L501.347 250.978L496.347 242.318ZM454.548 275.111V227.535H444.548V275.111H454.548ZM452.048 231.865L501.347 203.402L496.347 194.742L447.048 223.205L452.048 231.865ZM503.847 199.072V151.007H493.847V199.072H503.847ZM496.347 146.677L447.048 175.14L452.048 183.8L501.347 155.337L496.347 146.677ZM7.86097 389.378V150.921H-2.13903V389.378H7.86097ZM0.360972 155.251L50.0424 183.935L55.0424 175.274L5.36097 146.591L0.360972 155.251ZM48.3201 182.283L64.8806 208.391L73.3251 203.035L56.7646 176.926L48.3201 182.283ZM70.9688 210.352L87.8605 203.557L84.1286 194.279L67.2369 201.074L70.9688 210.352ZM83.4945 203.248L133.176 231.932L138.176 223.272L88.4945 194.588L83.4945 203.248ZM138.176 461.729L88.1633 432.854L83.1633 441.514L133.176 470.389L138.176 461.729ZM90.6633 437.199L90.9945 326.331L80.9946 326.301L80.6634 437.169L90.6633 437.199ZM84.1246 321.679L67.2329 328.491L70.9728 337.765L87.8645 330.953L84.1246 321.679ZM73.3259 330.451L56.7654 304.326L48.3194 309.68L64.8798 335.805L73.3259 330.451ZM47.5424 307.003V418.062H57.5424V307.003H47.5424ZM55.0424 413.732L5.36097 385.048L0.360973 393.708L50.0424 422.392L55.0424 413.732ZM133.176 470.389L182.484 498.857L187.484 490.197L138.176 461.729L133.176 470.389ZM189.984 494.527V399.339H179.984V494.527H189.984ZM182.492 403.674L215.426 422.609L220.41 413.939L187.476 395.005L182.492 403.674ZM219.796 422.908L252.731 409.556L248.973 400.288L216.039 413.64L219.796 422.908ZM255.852 404.922V326.465H245.852V404.922H255.852ZM255.061 323.767L222.127 272.386L213.708 277.782L246.642 329.163L255.061 323.767ZM189.984 365.39V289.757H179.984V365.39H189.984ZM180.752 292.42L197.352 318.806L205.816 313.481L189.216 287.095L180.752 292.42ZM199.735 354.137L183.135 360.744L186.833 370.035L203.434 363.428L199.735 354.137ZM0.723429 153.182L124.208 224.476L129.208 215.816L5.72343 144.522L0.723429 153.182ZM376.178 73.2276L252.693 1.9335L247.693 10.5938L371.178 81.8878L376.178 73.2276ZM124.208 224.476L247.693 295.77L252.693 287.11L129.208 215.816L124.208 224.476ZM499.664 144.522L376.178 73.2276L371.178 81.8878L494.664 153.182L499.664 144.522ZM250.2 164.49C232.034 164.49 215.343 168.786 203.023 175.991C190.823 183.126 182.051 193.713 182.051 206.422H192.051C192.051 198.734 197.415 190.855 208.071 184.623C218.607 178.461 233.49 174.49 250.2 174.49V164.49ZM182.051 206.422C182.051 217.177 186.669 226.385 193.11 233.956C199.523 241.495 207.928 247.643 216.083 252.46C224.269 257.296 232.416 260.914 238.493 263.319C241.539 264.524 244.084 265.432 245.877 266.042C246.774 266.347 247.484 266.578 247.977 266.734C248.223 266.813 248.415 266.872 248.548 266.913C248.615 266.934 248.668 266.95 248.705 266.961C248.723 266.967 248.738 266.971 248.749 266.975C248.755 266.976 248.759 266.978 248.763 266.979C248.765 266.979 248.767 266.98 248.768 266.98C248.769 266.981 248.771 266.981 250.2 262.19C251.629 257.398 251.63 257.399 251.631 257.399C251.631 257.399 251.632 257.399 251.631 257.399C251.631 257.399 251.63 257.398 251.628 257.398C251.624 257.397 251.616 257.394 251.604 257.391C251.58 257.383 251.542 257.372 251.489 257.356C251.384 257.323 251.221 257.273 251.005 257.204C250.573 257.066 249.926 256.857 249.096 256.574C247.436 256.01 245.047 255.158 242.173 254.02C236.41 251.74 228.77 248.34 221.169 243.85C213.536 239.342 206.154 233.857 200.727 227.477C195.327 221.129 192.051 214.133 192.051 206.422H182.051ZM250.2 262.19C251.629 266.981 251.631 266.981 251.632 266.98C251.633 266.98 251.635 266.979 251.637 266.979C251.641 266.978 251.645 266.976 251.651 266.975C251.662 266.971 251.677 266.967 251.695 266.961C251.733 266.95 251.785 266.934 251.852 266.913C251.985 266.872 252.177 266.813 252.424 266.734C252.916 266.578 253.626 266.347 254.523 266.042C256.317 265.432 258.861 264.524 261.907 263.319C267.984 260.914 276.131 257.296 284.318 252.46C292.473 247.643 300.877 241.495 307.29 233.956C313.731 226.385 318.349 217.177 318.349 206.422H308.349C308.349 214.133 305.073 221.129 299.674 227.477C294.246 233.857 286.864 239.342 279.232 243.85C271.631 248.34 263.99 251.74 258.227 254.02C255.353 255.158 252.964 256.01 251.304 256.574C250.474 256.857 249.828 257.066 249.395 257.204C249.179 257.273 249.016 257.323 248.911 257.356C248.858 257.372 248.82 257.383 248.796 257.391C248.785 257.394 248.777 257.397 248.772 257.398C248.77 257.398 248.769 257.399 248.769 257.399C248.769 257.399 248.769 257.399 248.769 257.399C248.77 257.399 248.771 257.398 250.2 262.19ZM318.349 206.422C318.349 193.713 309.577 183.126 297.377 175.991C285.057 168.786 268.367 164.49 250.2 164.49V174.49C266.91 174.49 281.793 178.461 292.329 184.623C302.985 190.855 308.349 198.733 308.349 206.422H318.349ZM237.407 274.721L252.563 266.596L247.838 257.783L232.682 265.908L237.407 274.721ZM247.982 266.671L264.401 274.796L268.836 265.833L252.418 257.708L247.982 266.671ZM266.619 265.315L235.044 265.315V275.315L266.619 275.315V265.315ZM358.79 105.032C357.056 105.032 355.237 105.394 353.671 106.222C352.33 106.932 349.857 108.772 349.857 112.113H359.857C359.857 113.175 359.434 113.972 359.072 114.426C358.735 114.847 358.423 115.021 358.347 115.061C358.205 115.137 358.353 115.032 358.79 115.032V105.032ZM349.857 112.113C349.857 114.716 351.418 116.448 352.591 117.323C353.802 118.226 355.2 118.725 356.471 118.973L358.387 109.158C358.156 109.113 358.269 109.083 358.569 109.307C358.832 109.503 359.857 110.406 359.857 112.113H349.857ZM353.02 111.707L348.901 119.405L357.719 124.122L361.838 116.424L353.02 111.707ZM353.31 121.764C351.344 117.166 351.344 117.166 351.345 117.166C351.345 117.166 351.345 117.166 351.345 117.166C351.346 117.166 351.346 117.165 351.347 117.165C351.348 117.165 351.348 117.164 351.349 117.164C351.35 117.164 351.35 117.164 351.349 117.164C351.348 117.165 351.344 117.166 351.336 117.17C351.321 117.176 351.295 117.187 351.257 117.202C351.182 117.233 351.064 117.281 350.91 117.341C350.601 117.462 350.158 117.628 349.641 117.804C348.544 118.175 347.364 118.5 346.464 118.611L347.682 128.536C349.595 128.302 351.533 127.721 352.851 127.274C353.542 127.04 354.131 126.819 354.552 126.654C354.763 126.572 354.935 126.503 355.058 126.452C355.119 126.427 355.169 126.406 355.206 126.391C355.224 126.383 355.239 126.376 355.251 126.371C355.257 126.369 355.262 126.367 355.266 126.365C355.268 126.364 355.27 126.363 355.272 126.363C355.273 126.362 355.274 126.362 355.274 126.362C355.275 126.361 355.275 126.361 355.275 126.361C355.276 126.361 355.276 126.361 353.31 121.764ZM346.7 118.587C346.278 118.619 345.821 118.637 345.327 118.637V128.637C346.057 128.637 346.764 128.611 347.446 128.56L346.7 118.587ZM345.327 118.637C340.562 118.637 338.99 116.841 338.295 115.675C337.353 114.094 337.317 112.323 337.317 112.113H327.317C327.317 112.863 327.357 116.854 329.705 120.794C332.301 125.151 337.234 128.637 345.327 128.637V118.637ZM337.317 112.113C337.317 112.631 337.207 113.294 336.855 113.973C336.513 114.632 336.075 115.052 335.782 115.282C335.517 115.489 335.322 115.578 335.357 115.561C335.393 115.543 335.464 115.511 335.712 115.404L331.752 106.222C331.543 106.312 330.486 106.727 329.616 107.408C328.311 108.43 327.317 110.049 327.317 112.113H337.317ZM335.712 115.404C336.046 115.26 336.604 115.021 337.227 114.692L332.551 105.853C332.321 105.974 332.099 106.072 331.752 106.222L335.712 115.404ZM337.227 114.692C337.76 114.41 338.381 114.041 338.961 113.6C339.334 113.315 340.501 112.421 341.135 110.929C341.522 110.019 341.863 108.499 341.189 106.827C340.54 105.213 339.312 104.376 338.53 103.99C337.165 103.315 335.696 103.272 334.889 103.272V113.272C335.519 113.272 334.958 113.379 334.098 112.954C333.569 112.692 332.494 112.006 331.913 110.561C331.307 109.057 331.631 107.725 331.933 107.015C332.212 106.36 332.566 105.972 332.673 105.858C332.748 105.779 332.807 105.724 332.841 105.695C332.876 105.664 332.898 105.648 332.901 105.645C332.906 105.641 332.877 105.664 332.806 105.708C332.737 105.75 332.651 105.8 332.551 105.853L337.227 114.692ZM334.889 103.272C332.301 103.272 328.399 104.364 326.183 108.097C323.911 111.927 324.461 116.757 326.883 121.919L335.936 117.671C334.123 113.807 334.976 112.876 334.783 113.2C334.722 113.304 334.646 113.337 334.678 113.322C334.7 113.311 334.739 113.296 334.792 113.285C334.817 113.279 334.84 113.276 334.859 113.274C334.879 113.272 334.889 113.272 334.889 113.272V103.272ZM331.41 119.795C326.538 118.668 326.538 118.668 326.538 118.669C326.538 118.669 326.538 118.67 326.538 118.671C326.538 118.672 326.537 118.673 326.537 118.674C326.536 118.677 326.536 118.68 326.535 118.683C326.533 118.69 326.531 118.699 326.529 118.71C326.524 118.731 326.517 118.76 326.509 118.796C326.493 118.868 326.471 118.968 326.445 119.092C326.392 119.34 326.32 119.689 326.241 120.107C326.085 120.933 325.891 122.081 325.758 123.295C325.632 124.453 325.533 125.923 325.668 127.304C325.734 127.988 325.88 128.898 326.254 129.821C326.618 130.719 327.41 132.139 329.072 133.018L333.748 124.178C334.956 124.817 335.407 125.782 335.523 126.067C335.649 126.378 335.638 126.518 335.62 126.331C335.585 125.971 335.599 125.301 335.699 124.379C335.794 123.512 335.94 122.639 336.067 121.964C336.13 121.633 336.186 121.361 336.225 121.176C336.245 121.084 336.26 121.015 336.27 120.971C336.275 120.949 336.278 120.934 336.28 120.926C336.281 120.922 336.282 120.92 336.282 120.919C336.282 120.919 336.282 120.919 336.282 120.92C336.282 120.92 336.281 120.92 336.281 120.921C336.281 120.921 336.281 120.922 336.281 120.922C336.281 120.922 336.281 120.923 331.41 119.795ZM329.072 133.018C330.286 133.66 331.516 133.788 332.221 133.827C333.026 133.871 333.84 133.824 334.558 133.756C335.981 133.621 337.62 133.337 339.041 133.094L337.353 123.237C335.816 123.5 334.583 123.709 333.612 123.801C333.133 123.846 332.87 123.847 332.767 123.842C332.564 123.831 333.054 123.812 333.748 124.178L329.072 133.018ZM339.041 133.094C341.39 132.691 343.2 132.398 344.419 132.398V122.398C342.159 122.398 339.393 122.888 337.353 123.237L339.041 133.094ZM344.419 132.398C345.254 132.398 346.658 132.832 348.251 133.629C348.963 133.986 349.58 134.347 350.015 134.617C350.231 134.751 350.396 134.859 350.501 134.928C350.553 134.963 350.589 134.988 350.609 135.001C350.618 135.008 350.624 135.012 350.625 135.012C350.625 135.013 350.625 135.012 350.623 135.011C350.622 135.01 350.621 135.009 350.619 135.008C350.618 135.008 350.618 135.007 350.617 135.007C350.616 135.006 350.616 135.006 350.615 135.006C350.615 135.005 350.614 135.005 353.496 130.919C356.378 126.833 356.377 126.832 356.376 126.832C356.376 126.832 356.375 126.831 356.374 126.831C356.373 126.83 356.372 126.829 356.371 126.828C356.368 126.826 356.365 126.824 356.362 126.822C356.355 126.817 356.347 126.811 356.338 126.805C356.32 126.792 356.297 126.776 356.269 126.757C356.213 126.719 356.138 126.668 356.046 126.607C355.862 126.484 355.605 126.317 355.289 126.12C354.661 125.73 353.774 125.211 352.727 124.687C350.803 123.724 347.669 122.398 344.419 122.398V132.398ZM348.496 130.919V142.602H358.496V130.919H348.496ZM349.266 139.937L344.273 147.859L352.734 153.19L357.726 145.268L349.266 139.937ZM344.013 148.326L327.827 181.376L336.808 185.774L352.994 152.724L344.013 148.326ZM330.029 179.13L324.432 182.01L329.008 190.902L334.605 188.021L330.029 179.13ZM326.72 191.456L330.199 191.456L330.199 181.456L326.72 181.456L326.72 191.456ZM331.478 191.29L333.596 190.73L331.039 181.062L328.921 181.622L331.478 191.29ZM331.19 190.767L333.61 191.327L335.865 181.585L333.445 181.025L331.19 190.767ZM334.738 191.456H338.066V181.456H334.738V191.456ZM338.066 186.456C340.052 181.867 340.052 181.868 340.052 181.868C340.052 181.868 340.053 181.868 340.053 181.868C340.053 181.868 340.053 181.868 340.053 181.868C340.054 181.868 340.054 181.868 340.054 181.868C340.054 181.868 340.053 181.868 340.051 181.867C340.048 181.866 340.042 181.863 340.033 181.859C340.015 181.851 339.986 181.839 339.948 181.822C339.872 181.788 339.76 181.738 339.623 181.676C339.346 181.549 338.993 181.383 338.655 181.213C338.287 181.026 338.063 180.898 337.98 180.844C337.92 180.805 338.075 180.896 338.301 181.109C338.411 181.212 338.678 181.472 338.948 181.882C339.179 182.232 339.738 183.173 339.738 184.535H329.738C329.738 185.958 330.323 186.967 330.602 187.391C330.921 187.874 331.259 188.214 331.46 188.403C331.869 188.786 332.284 189.069 332.535 189.232C333.077 189.584 333.685 189.905 334.148 190.139C334.642 190.389 335.122 190.613 335.468 190.771C335.644 190.852 335.791 190.918 335.897 190.965C335.95 190.988 335.993 191.007 336.024 191.02C336.039 191.027 336.052 191.033 336.061 191.037C336.066 191.039 336.07 191.04 336.073 191.042C336.074 191.042 336.076 191.043 336.077 191.043C336.077 191.044 336.078 191.044 336.078 191.044C336.079 191.044 336.079 191.044 336.079 191.044C336.079 191.045 336.08 191.045 338.066 186.456ZM339.738 184.535C339.738 185.436 339.483 186.108 339.451 186.199C339.371 186.424 339.292 186.591 339.257 186.664C339.182 186.819 339.121 186.923 339.114 186.934C339.09 186.976 339.095 186.964 339.157 186.869C339.272 186.694 339.466 186.409 339.746 186.006C340.3 185.21 341.106 184.079 342.09 182.711C344.054 179.98 346.679 176.375 349.311 172.774C351.942 169.176 354.573 165.592 356.547 162.906C357.534 161.564 358.357 160.447 358.933 159.665C359.22 159.274 359.446 158.967 359.601 158.758C359.678 158.654 359.737 158.573 359.776 158.52C359.796 158.493 359.811 158.472 359.821 158.458C359.826 158.452 359.83 158.447 359.833 158.443C359.834 158.441 359.835 158.44 359.835 158.439C359.836 158.439 359.836 158.439 359.836 158.438C359.836 158.438 359.836 158.438 355.812 155.471C351.787 152.504 351.787 152.504 351.787 152.504C351.787 152.504 351.787 152.505 351.786 152.505C351.786 152.506 351.785 152.507 351.784 152.509C351.781 152.513 351.777 152.518 351.772 152.525C351.762 152.539 351.747 152.559 351.727 152.586C351.687 152.641 351.627 152.721 351.55 152.826C351.395 153.036 351.169 153.344 350.88 153.735C350.303 154.519 349.479 155.638 348.491 156.983C346.513 159.672 343.876 163.264 341.239 166.872C338.602 170.478 335.959 174.109 333.971 176.872C332.98 178.251 332.139 179.432 331.54 180.292C331.244 180.716 330.986 181.094 330.791 181.391C330.699 181.531 330.586 181.708 330.482 181.885C330.435 181.965 330.344 182.125 330.249 182.321C330.204 182.415 330.117 182.6 330.032 182.839C329.995 182.944 329.738 183.628 329.738 184.535H339.738ZM350.994 156.806L353.413 165.536L363.05 162.866L360.63 154.136L350.994 156.806ZM369.638 150.525C369.638 149.513 369.383 148.302 369.221 147.569C369.019 146.652 368.759 145.629 368.511 144.703C368.261 143.768 368.013 142.888 367.828 142.245C367.735 141.922 367.658 141.656 367.603 141.47C367.575 141.377 367.554 141.304 367.539 141.253C367.531 141.227 367.525 141.208 367.521 141.194C367.519 141.187 367.517 141.181 367.516 141.177C367.516 141.175 367.515 141.174 367.515 141.173C367.515 141.172 367.514 141.172 367.514 141.171C367.514 141.171 367.514 141.171 367.514 141.171C367.514 141.17 367.514 141.17 362.724 142.602C357.933 144.035 357.933 144.034 357.933 144.034L357.933 144.034C357.933 144.034 357.933 144.034 357.933 144.035C357.933 144.035 357.933 144.036 357.934 144.037C357.934 144.039 357.936 144.043 357.937 144.048C357.94 144.058 357.945 144.075 357.952 144.097C357.964 144.14 357.984 144.206 358.009 144.291C358.059 144.461 358.131 144.707 358.217 145.008C358.391 145.613 358.621 146.429 358.85 147.284C359.081 148.149 359.299 149.011 359.456 149.722C359.653 150.617 359.638 150.777 359.638 150.525H369.638ZM362.724 142.602C367.724 142.602 367.724 142.602 367.724 142.602C367.724 142.602 367.724 142.602 367.724 142.602C367.724 142.601 367.724 142.602 367.724 142.601C367.724 142.599 367.724 142.6 367.724 142.598C367.724 142.595 367.724 142.589 367.724 142.583C367.724 142.57 367.724 142.552 367.724 142.527C367.724 142.478 367.724 142.405 367.724 142.313C367.724 142.127 367.724 141.861 367.724 141.536C367.724 140.888 367.724 140.009 367.724 139.086C367.724 137.241 367.724 135.22 367.724 134.52H357.724C357.724 135.22 357.724 137.241 357.724 139.086C357.724 140.009 357.724 140.888 357.724 141.536C357.724 141.861 357.724 142.127 357.724 142.313C357.724 142.405 357.724 142.478 357.724 142.527C357.724 142.552 357.724 142.57 357.724 142.583C357.724 142.589 357.724 142.595 357.724 142.598C357.724 142.599 357.724 142.601 357.724 142.601C357.724 142.602 357.724 142.601 357.724 142.602C357.724 142.602 357.724 142.602 357.724 142.602C357.724 142.602 357.724 142.602 362.724 142.602ZM367.724 134.52C367.724 134.145 367.697 133.789 367.688 133.655C367.675 133.454 367.678 133.467 367.678 133.519C367.676 133.648 367.656 134.566 366.949 135.505C366.25 136.433 365.444 136.641 365.444 136.641C365.431 136.645 365.53 136.618 365.79 136.594C366.046 136.571 366.411 136.554 366.913 136.559L367.006 126.559C365.546 126.546 364.152 126.642 362.907 126.969C361.641 127.301 360.091 127.989 358.962 129.488C357.824 130.998 357.688 132.578 357.678 133.4C357.674 133.8 357.7 134.167 357.71 134.322C357.725 134.544 357.724 134.545 357.724 134.52H367.724ZM366.913 136.559C368.174 136.571 368.89 136.581 369.28 136.59C369.496 136.596 369.527 136.599 369.477 136.596C369.457 136.594 369.405 136.59 369.334 136.582C369.28 136.576 369.124 136.558 368.922 136.516C368.82 136.496 368.641 136.456 368.422 136.386C368.25 136.331 367.798 136.181 367.286 135.86C367.019 135.692 366.606 135.398 366.195 134.934C365.774 134.457 365.274 133.702 365.054 132.665C364.823 131.579 364.977 130.547 365.329 129.704C365.654 128.923 366.107 128.391 366.418 128.082C366.737 127.765 367.038 127.552 367.238 127.424C367.447 127.289 367.63 127.194 367.762 127.13C368.017 127.007 368.229 126.931 368.341 126.894C368.566 126.818 368.744 126.777 368.799 126.765C368.923 126.736 369.019 126.721 368.988 126.726C368.982 126.727 368.983 126.727 368.959 126.731C368.942 126.734 368.914 126.739 368.881 126.745C368.826 126.755 368.697 126.778 368.544 126.815C368.465 126.833 368.344 126.863 368.201 126.907C368.075 126.946 367.829 127.025 367.536 127.161C367.385 127.231 367.168 127.34 366.922 127.498C366.689 127.649 366.321 127.912 365.944 128.321C365.569 128.729 365.052 129.429 364.786 130.438C364.651 130.951 364.592 131.505 364.634 132.078C364.676 132.649 364.812 133.171 365.002 133.63C365.371 134.522 365.913 135.108 366.278 135.436C366.651 135.772 367.001 135.986 367.226 136.109C367.662 136.349 368.038 136.47 368.202 136.52C368.558 136.629 368.863 136.679 368.988 136.699L370.557 126.823C370.579 126.826 370.811 126.861 371.118 126.955C371.258 126.998 371.616 127.112 372.039 127.344C372.258 127.464 372.603 127.674 372.972 128.007C373.333 128.332 373.873 128.915 374.241 129.803C374.644 130.777 374.743 131.894 374.456 132.985C374.191 133.991 373.675 134.688 373.303 135.092C372.93 135.498 372.565 135.759 372.337 135.906C372.095 136.061 371.884 136.168 371.74 136.235C371.265 136.454 370.867 136.541 370.842 136.547C370.698 136.581 370.534 136.607 370.705 136.578C370.724 136.574 370.864 136.551 371.023 136.514C371.094 136.498 371.287 136.453 371.523 136.374C371.64 136.335 371.857 136.258 372.116 136.132C372.305 136.041 372.887 135.753 373.468 135.175C373.78 134.865 374.234 134.332 374.559 133.551C374.911 132.706 375.066 131.673 374.835 130.586C374.614 129.548 374.114 128.793 373.692 128.315C373.281 127.85 372.866 127.555 372.598 127.387C372.083 127.064 371.628 126.912 371.45 126.855C371.226 126.784 371.04 126.743 370.931 126.72C370.57 126.646 370.26 126.626 370.208 126.622C369.995 126.607 369.75 126.599 369.53 126.593C369.05 126.581 368.259 126.571 367.006 126.559L366.913 136.559ZM364.772 131.761V142.907H374.772V131.761H364.772ZM365.626 140.112L360.491 147.73L368.784 153.32L373.918 145.702L365.626 140.112ZM353.741 162.002L344.103 181.681L353.084 186.079L362.722 166.4L353.741 162.002ZM346.306 179.434L340.708 182.315L345.285 191.206L350.882 188.325L346.306 179.434ZM342.997 191.761H346.476V181.761H342.997V191.761ZM347.754 191.594L349.872 191.034L347.315 181.367L345.197 181.927L347.754 191.594ZM347.466 191.072L349.887 191.632L352.142 181.889L349.721 181.329L347.466 191.072ZM351.014 191.761H354.342V181.761H351.014V191.761ZM354.342 186.761C356.328 182.172 356.328 182.172 356.329 182.172C356.329 182.172 356.329 182.172 356.329 182.172C356.329 182.173 356.33 182.173 356.33 182.173C356.33 182.173 356.33 182.173 356.33 182.173C356.33 182.173 356.329 182.172 356.328 182.172C356.324 182.17 356.318 182.168 356.309 182.164C356.292 182.156 356.263 182.143 356.225 182.127C356.149 182.093 356.036 182.042 355.9 181.98C355.622 181.853 355.27 181.688 354.932 181.517C354.563 181.331 354.339 181.202 354.257 181.149C354.196 181.11 354.351 181.201 354.577 181.413C354.688 181.517 354.954 181.777 355.224 182.186C355.455 182.536 356.014 183.478 356.014 184.84H346.014C346.014 186.262 346.599 187.272 346.879 187.695C347.198 188.178 347.535 188.519 347.737 188.708C348.145 189.09 348.56 189.373 348.811 189.536C349.353 189.888 349.961 190.21 350.424 190.444C350.919 190.693 351.398 190.918 351.744 191.076C351.92 191.156 352.068 191.222 352.174 191.269C352.227 191.293 352.269 191.311 352.3 191.325C352.316 191.332 352.328 191.337 352.338 191.341C352.342 191.343 352.346 191.345 352.349 191.346C352.351 191.347 352.352 191.348 352.353 191.348C352.354 191.348 352.354 191.349 352.355 191.349C352.355 191.349 352.355 191.349 352.356 191.349C352.356 191.349 352.356 191.349 354.342 186.761ZM356.014 184.84C356.014 185.685 355.791 186.318 355.753 186.431C355.676 186.657 355.599 186.827 355.563 186.906C355.487 187.069 355.423 187.181 355.412 187.2C355.381 187.256 355.375 187.261 355.425 187.183C355.515 187.043 355.674 186.805 355.912 186.456C356.382 185.77 357.07 184.787 357.924 183.581C359.627 181.177 361.933 177.962 364.336 174.629L356.224 168.781C353.817 172.12 351.491 175.362 349.763 177.802C348.901 179.019 348.175 180.055 347.659 180.81C347.405 181.181 347.178 181.519 347.005 181.789C346.924 181.915 346.818 182.084 346.718 182.259C346.674 182.338 346.584 182.498 346.491 182.698C346.446 182.795 346.363 182.981 346.282 183.22C346.239 183.346 346.014 183.988 346.014 184.84H356.014ZM369.222 167.867C370.555 166.026 371.799 164.311 372.852 162.861L364.759 156.987C363.705 158.439 362.459 160.158 361.123 162.002L369.222 167.867ZM372.852 162.861C373.203 162.377 374.046 161.687 375.206 161.008C375.721 160.707 376.194 160.467 376.535 160.306C376.703 160.226 376.833 160.167 376.914 160.132C376.954 160.114 376.981 160.103 376.994 160.097C377.001 160.095 377.003 160.093 377.002 160.094C377.002 160.094 377 160.095 376.998 160.096C376.997 160.096 376.995 160.097 376.993 160.098C376.992 160.098 376.992 160.098 376.991 160.099C376.99 160.099 376.989 160.099 376.989 160.099C376.988 160.1 376.987 160.1 375.098 155.471C373.208 150.842 373.207 150.842 373.206 150.843C373.206 150.843 373.205 150.843 373.204 150.843C373.203 150.844 373.201 150.844 373.2 150.845C373.197 150.846 373.194 150.847 373.191 150.849C373.184 150.851 373.176 150.855 373.168 150.858C373.15 150.866 373.128 150.875 373.102 150.886C373.05 150.908 372.982 150.937 372.9 150.973C372.735 151.045 372.511 151.146 372.241 151.275C371.705 151.529 370.97 151.901 370.155 152.378C368.655 153.256 366.352 154.793 364.759 156.987L372.852 162.861ZM375.098 155.471C373.504 160.21 373.504 160.21 373.503 160.21C373.502 160.21 373.501 160.209 373.501 160.209C373.5 160.209 373.499 160.208 373.497 160.208C373.495 160.207 373.494 160.207 373.492 160.206C373.489 160.205 373.487 160.204 373.485 160.204C373.483 160.203 373.484 160.204 373.489 160.205C373.499 160.209 373.523 160.217 373.56 160.231C373.634 160.258 373.757 160.305 373.917 160.37C374.241 160.502 374.692 160.701 375.182 160.959C376.3 161.546 377.041 162.141 377.323 162.529L385.416 156.655C383.765 154.381 381.371 152.915 379.836 152.108C378.999 151.668 378.245 151.335 377.695 151.111C377.418 150.998 377.187 150.91 377.016 150.847C376.93 150.815 376.859 150.79 376.804 150.771C376.777 150.761 376.754 150.753 376.735 150.746C376.725 150.743 376.717 150.74 376.709 150.738C376.706 150.737 376.702 150.735 376.699 150.734C376.698 150.734 376.696 150.733 376.695 150.733C376.694 150.733 376.693 150.732 376.693 150.732C376.692 150.732 376.691 150.732 375.098 155.471ZM377.323 162.529C378.363 163.962 379.591 165.654 380.908 167.473L389.007 161.608C387.688 159.786 386.458 158.09 385.416 156.655L377.323 162.529ZM385.979 174.491C388.359 177.793 390.635 180.966 392.314 183.337C393.155 184.526 393.833 185.493 394.294 186.168C394.529 186.512 394.685 186.745 394.772 186.882C394.821 186.958 394.814 186.951 394.782 186.894C394.77 186.873 394.706 186.76 394.63 186.596C394.593 186.517 394.517 186.347 394.44 186.12C394.401 186.004 394.181 185.376 394.181 184.535H404.181C404.181 183.688 403.958 183.05 403.915 182.922C403.834 182.682 403.752 182.497 403.707 182.399C403.614 182.199 403.524 182.038 403.479 181.959C403.38 181.785 403.275 181.616 403.195 181.491C403.024 181.224 402.8 180.89 402.549 180.524C402.04 179.78 401.325 178.758 400.475 177.559C398.772 175.153 396.476 171.952 394.092 168.644L385.979 174.491ZM394.181 184.535C394.181 183.173 394.74 182.231 394.971 181.882C395.241 181.472 395.507 181.212 395.618 181.109C395.844 180.896 395.999 180.805 395.938 180.844C395.856 180.898 395.632 181.026 395.263 181.213C394.925 181.383 394.573 181.549 394.295 181.676C394.159 181.738 394.047 181.788 393.97 181.822C393.932 181.839 393.904 181.851 393.886 181.859C393.877 181.863 393.871 181.866 393.867 181.867C393.866 181.868 393.865 181.868 393.865 181.868C393.865 181.868 393.865 181.868 393.865 181.868C393.865 181.868 393.866 181.868 393.866 181.868C393.866 181.868 393.866 181.868 393.866 181.868C393.867 181.868 393.867 181.867 395.853 186.456C397.839 191.045 397.839 191.045 397.84 191.044C397.84 191.044 397.84 191.044 397.84 191.044C397.841 191.044 397.841 191.044 397.842 191.043C397.843 191.043 397.844 191.042 397.846 191.042C397.849 191.04 397.853 191.039 397.857 191.037C397.867 191.033 397.879 191.027 397.895 191.02C397.926 191.007 397.969 190.988 398.022 190.965C398.127 190.918 398.275 190.852 398.451 190.771C398.797 190.613 399.276 190.389 399.771 190.139C400.234 189.905 400.842 189.584 401.384 189.232C401.635 189.069 402.05 188.786 402.458 188.403C402.66 188.214 402.997 187.874 403.316 187.391C403.596 186.967 404.181 185.958 404.181 184.535H394.181ZM395.853 191.456H399.181V181.456H395.853V191.456ZM400.308 191.327L402.729 190.767L400.474 181.025L398.054 181.585L400.308 191.327ZM400.323 190.73L402.441 191.29L404.998 181.622L402.88 181.062L400.323 190.73ZM403.719 191.456H407.199V181.456H403.719V191.456ZM409.487 182.01L403.89 179.129L399.313 188.021L404.91 190.902L409.487 182.01ZM406.092 181.376L396.561 161.915L387.58 166.314L397.111 185.774L406.092 181.376ZM389.597 147.784L384.605 140.166L376.241 145.648L381.233 153.265L389.597 147.784ZM385.423 142.907V132.066H375.423V142.907H385.423ZM381.207 137.004C381.329 136.984 381.583 136.942 381.88 136.859C382.022 136.819 382.309 136.734 382.648 136.578C382.822 136.499 383.083 136.367 383.377 136.169C383.653 135.982 384.108 135.635 384.537 135.079C384.987 134.496 385.486 133.577 385.57 132.364C385.656 131.123 385.272 130.084 384.816 129.356C384.393 128.683 383.903 128.258 383.604 128.031C383.288 127.791 383.004 127.633 382.818 127.54C382.458 127.359 382.152 127.26 382.014 127.218C381.85 127.167 381.713 127.134 381.627 127.115C381.46 127.077 381.321 127.054 381.267 127.045C381.219 127.037 381.136 127.025 381.159 127.028C381.159 127.028 381.163 127.029 381.169 127.03C381.176 127.031 381.187 127.033 381.201 127.035C381.224 127.039 381.289 127.05 381.376 127.069C381.427 127.08 381.661 127.129 381.952 127.23C382.085 127.276 382.417 127.395 382.806 127.619C383.005 127.734 383.327 127.937 383.674 128.253C384.006 128.554 384.546 129.126 384.919 130.014C385.113 130.476 385.259 131.019 385.298 131.625C385.338 132.235 385.264 132.831 385.098 133.385C384.772 134.473 384.159 135.191 383.742 135.584C383.322 135.98 382.921 136.221 382.681 136.35C382.424 136.488 382.202 136.578 382.053 136.633C381.763 136.741 381.526 136.798 381.412 136.824C381.28 136.853 381.172 136.871 381.106 136.882C380.975 136.902 380.876 136.912 380.839 136.915C380.793 136.92 380.761 136.922 380.752 136.923C380.737 136.924 380.795 136.92 381.006 136.913C381.401 136.901 382.107 136.886 383.331 136.863L383.141 126.865C381.926 126.888 381.163 126.904 380.702 126.918C380.485 126.925 380.268 126.933 380.086 126.945C380.026 126.949 379.81 126.963 379.558 127.002C379.496 127.012 379.073 127.073 378.573 127.259C378.422 127.315 378.199 127.406 377.941 127.544C377.7 127.674 377.298 127.915 376.877 128.312C376.46 128.706 375.846 129.424 375.519 130.513C375.162 131.704 375.283 132.896 375.699 133.886C376.072 134.775 376.613 135.348 376.945 135.65C377.293 135.966 377.616 136.17 377.817 136.286C378.208 136.511 378.543 136.632 378.68 136.679C378.98 136.783 379.225 136.835 379.29 136.849C379.46 136.885 379.61 136.908 379.618 136.909C379.787 136.935 379.595 136.908 379.42 136.869C379.355 136.854 379.236 136.825 379.087 136.78C378.964 136.742 378.672 136.649 378.322 136.472C378.142 136.382 377.862 136.227 377.549 135.989C377.254 135.765 376.767 135.343 376.346 134.672C375.891 133.948 375.508 132.912 375.594 131.673C375.678 130.464 376.175 129.547 376.623 128.967C377.05 128.414 377.501 128.071 377.773 127.887C378.062 127.691 378.317 127.563 378.484 127.487C378.809 127.338 379.076 127.259 379.193 127.227C379.439 127.158 379.62 127.13 379.638 127.127L381.207 137.004ZM383.331 136.863C383.814 136.854 384.165 136.866 384.411 136.886C384.66 136.907 384.755 136.931 384.741 136.928C384.733 136.926 383.962 136.733 383.268 135.86C382.563 134.973 382.507 134.092 382.501 133.945C382.498 133.881 382.502 133.871 382.494 134.048C382.489 134.161 382.471 134.499 382.471 134.825H392.471C392.471 134.778 392.474 134.74 392.485 134.482C392.493 134.289 392.509 133.912 392.491 133.494C392.452 132.637 392.251 131.092 391.098 129.64C389.955 128.201 388.429 127.542 387.17 127.227C385.935 126.918 384.564 126.837 383.141 126.865L383.331 136.863ZM382.471 134.825C382.471 135.57 382.471 137.591 382.471 139.425C382.471 140.342 382.471 141.213 382.471 141.854C382.471 142.174 382.471 142.438 382.471 142.621C382.471 142.713 382.471 142.784 382.471 142.833C382.471 142.857 382.471 142.876 382.471 142.888C382.471 142.894 382.471 142.899 382.471 142.902C382.471 142.904 382.471 142.903 382.471 142.904C382.471 142.907 382.471 142.904 382.471 142.906C382.471 142.907 382.471 142.906 382.471 142.907C382.471 142.907 382.471 142.907 382.471 142.907C382.471 142.907 382.471 142.907 387.471 142.907C392.471 142.907 392.471 142.907 392.471 142.907C392.471 142.907 392.471 142.907 392.471 142.907C392.471 142.906 392.471 142.907 392.471 142.906C392.471 142.904 392.471 142.907 392.471 142.904C392.471 142.903 392.471 142.904 392.471 142.902C392.471 142.899 392.471 142.894 392.471 142.888C392.471 142.875 392.471 142.857 392.471 142.833C392.471 142.784 392.471 142.712 392.471 142.621C392.471 142.438 392.471 142.174 392.471 141.854C392.471 141.213 392.471 140.342 392.471 139.425C392.471 137.591 392.471 135.57 392.471 134.825H382.471ZM387.471 142.907C382.734 141.309 382.734 141.309 382.734 141.309C382.733 141.31 382.733 141.31 382.733 141.31C382.733 141.31 382.733 141.311 382.733 141.312C382.732 141.313 382.732 141.314 382.731 141.316C382.73 141.32 382.728 141.326 382.726 141.332C382.721 141.346 382.715 141.365 382.707 141.39C382.69 141.439 382.667 141.51 382.637 141.599C382.578 141.778 382.494 142.033 382.393 142.343C382.193 142.961 381.925 143.807 381.654 144.709C381.386 145.602 381.102 146.598 380.88 147.501C380.706 148.21 380.415 149.448 380.415 150.525H390.415C390.415 150.842 390.38 150.748 390.592 149.885C390.756 149.217 390.986 148.404 391.232 147.582C391.476 146.77 391.721 145.997 391.907 145.424C391.999 145.138 392.076 144.905 392.129 144.745C392.156 144.665 392.176 144.603 392.19 144.562C392.197 144.542 392.202 144.526 392.205 144.517C392.207 144.512 392.208 144.509 392.209 144.507C392.209 144.506 392.209 144.505 392.209 144.505C392.209 144.505 392.209 144.505 392.209 144.505C392.209 144.505 392.209 144.505 392.209 144.505C392.209 144.505 392.209 144.505 387.471 142.907ZM396.894 165.431L399.254 156.788L389.607 154.154L387.247 162.798L396.894 165.431ZM394.43 155.471C390.388 158.413 390.388 158.413 390.388 158.414C390.388 158.414 390.388 158.414 390.388 158.415C390.389 158.415 390.39 158.417 390.391 158.418C390.394 158.422 390.398 158.427 390.403 158.434C390.413 158.448 390.428 158.468 390.447 158.496C390.487 158.55 390.546 158.631 390.623 158.737C390.777 158.948 391.002 159.258 391.289 159.653C391.864 160.443 392.684 161.573 393.669 162.929C395.639 165.643 398.265 169.266 400.89 172.902C403.516 176.541 406.135 180.184 408.095 182.944C409.077 184.326 409.881 185.47 410.434 186.274C410.715 186.681 410.909 186.97 411.024 187.148C411.086 187.245 411.092 187.257 411.07 187.218C411.063 187.207 411.003 187.105 410.931 186.952C410.896 186.88 410.819 186.715 410.74 186.493C410.709 186.405 410.457 185.736 410.457 184.84H420.457C420.457 183.937 420.203 183.256 420.167 183.155C420.083 182.918 419.998 182.735 419.954 182.642C419.861 182.447 419.771 182.289 419.725 182.209C419.622 182.032 419.51 181.856 419.419 181.714C419.226 181.416 418.968 181.035 418.673 180.607C418.077 179.739 417.238 178.546 416.248 177.154C414.266 174.361 411.628 170.693 408.998 167.049C406.366 163.403 403.735 159.773 401.762 157.055C400.776 155.696 399.953 154.565 399.378 153.773C399.09 153.377 398.864 153.066 398.71 152.854C398.632 152.748 398.573 152.667 398.533 152.612C398.513 152.584 398.498 152.564 398.488 152.55C398.483 152.543 398.479 152.537 398.477 152.534C398.475 152.532 398.474 152.531 398.474 152.53C398.473 152.529 398.473 152.529 398.473 152.529C398.473 152.529 398.473 152.529 394.43 155.471ZM410.457 184.84C410.457 183.478 411.016 182.536 411.247 182.186C411.517 181.777 411.784 181.517 411.894 181.413C412.12 181.201 412.275 181.11 412.215 181.149C412.133 181.202 411.908 181.331 411.54 181.517C411.202 181.688 410.849 181.853 410.572 181.98C410.435 182.042 410.323 182.093 410.247 182.126C410.209 182.143 410.18 182.156 410.162 182.164C410.153 182.168 410.147 182.17 410.144 182.172C410.142 182.172 410.141 182.173 410.141 182.173C410.141 182.173 410.141 182.173 410.142 182.173C410.142 182.173 410.142 182.173 410.142 182.172C410.142 182.172 410.143 182.172 410.143 182.172C410.143 182.172 410.143 182.172 412.129 186.761C414.115 191.349 414.116 191.349 414.116 191.349C414.116 191.349 414.116 191.349 414.117 191.349C414.117 191.349 414.118 191.348 414.118 191.348C414.119 191.348 414.121 191.347 414.122 191.346C414.125 191.345 414.129 191.343 414.134 191.341C414.143 191.337 414.156 191.332 414.171 191.325C414.202 191.311 414.245 191.293 414.298 191.269C414.404 191.222 414.551 191.156 414.727 191.076C415.073 190.918 415.553 190.693 416.047 190.444C416.51 190.21 417.118 189.888 417.66 189.536C417.911 189.373 418.326 189.09 418.735 188.708C418.936 188.519 419.274 188.178 419.593 187.695C419.872 187.272 420.457 186.262 420.457 184.84H410.457ZM412.129 191.761H415.457V181.761H412.129V191.761ZM416.585 191.632L419.005 191.072L416.75 181.329L414.33 181.889L416.585 191.632ZM416.599 191.034L418.717 191.594L421.274 181.927L419.156 181.367L416.599 191.034ZM419.996 191.761H423.475V181.761H419.996V191.761ZM425.763 182.315L420.166 179.434L415.59 188.325L421.187 191.206L425.763 182.315ZM422.368 181.681L406.182 148.63L397.201 153.029L413.387 186.079L422.368 181.681ZM405.922 148.164L400.929 140.241L392.469 145.573L397.461 153.495L405.922 148.164ZM401.699 142.907V130.919H391.699V142.907H401.699ZM396.699 130.919C399.563 135.018 399.562 135.018 399.561 135.019C399.561 135.019 399.56 135.019 399.56 135.02C399.559 135.02 399.558 135.021 399.558 135.021C399.556 135.022 399.555 135.023 399.554 135.024C399.552 135.025 399.552 135.025 399.552 135.025C399.553 135.024 399.559 135.02 399.569 135.013C399.589 135 399.626 134.975 399.679 134.94C399.785 134.87 399.953 134.761 400.171 134.627C400.612 134.355 401.236 133.993 401.956 133.635C403.566 132.835 404.984 132.398 405.824 132.398V122.398C402.579 122.398 399.435 123.721 397.504 124.681C396.453 125.203 395.561 125.722 394.93 126.111C394.612 126.306 394.354 126.473 394.168 126.595C394.076 126.657 394 126.707 393.945 126.745C393.917 126.764 393.893 126.78 393.875 126.793C393.866 126.799 393.858 126.804 393.852 126.809C393.848 126.811 393.845 126.813 393.843 126.815C393.841 126.816 393.84 126.817 393.839 126.818C393.838 126.818 393.838 126.819 393.837 126.819C393.836 126.819 393.836 126.82 396.699 130.919ZM405.824 132.398C407.032 132.398 408.813 132.687 411.147 133.086L412.836 123.23C410.807 122.882 408.072 122.398 405.824 122.398V132.398ZM411.265 133.106C412.67 133.347 414.287 133.627 415.689 133.759C416.397 133.826 417.204 133.871 418.004 133.826C418.71 133.785 419.922 133.653 421.123 133.018L416.447 124.178C417.132 123.816 417.618 123.831 417.433 123.842C417.342 123.847 417.093 123.847 416.627 123.803C415.682 123.714 414.477 123.511 412.953 123.25L411.265 133.106ZM421.123 133.018C422.743 132.161 423.543 130.791 423.922 129.879C424.307 128.956 424.457 128.048 424.526 127.368C424.664 125.999 424.562 124.552 424.434 123.426C424.301 122.244 424.104 121.129 423.947 120.329C423.867 119.923 423.795 119.585 423.741 119.344C423.715 119.223 423.692 119.126 423.676 119.056C423.668 119.021 423.661 118.992 423.656 118.971C423.654 118.96 423.652 118.952 423.65 118.945C423.649 118.941 423.649 118.938 423.648 118.936C423.648 118.934 423.647 118.933 423.647 118.932C423.647 118.932 423.647 118.931 423.647 118.931C423.647 118.93 423.646 118.929 418.785 120.1C413.924 121.271 413.924 121.27 413.924 121.269C413.924 121.269 413.924 121.269 413.924 121.268C413.924 121.268 413.924 121.267 413.924 121.267C413.923 121.266 413.923 121.266 413.923 121.266C413.923 121.266 413.924 121.268 413.925 121.272C413.926 121.28 413.93 121.294 413.935 121.314C413.944 121.355 413.959 121.42 413.978 121.507C414.017 121.682 414.072 121.941 414.135 122.257C414.261 122.9 414.405 123.729 414.498 124.551C414.597 125.43 414.608 126.048 414.577 126.362C414.56 126.524 414.555 126.362 414.691 126.035C414.822 125.72 415.282 124.795 416.447 124.178L421.123 133.018ZM423.312 122.224C425.734 117.061 426.284 112.231 424.012 108.401C421.796 104.668 417.894 103.576 415.306 103.576V113.576C415.306 113.576 415.316 113.576 415.336 113.578C415.355 113.58 415.378 113.584 415.403 113.589C415.456 113.601 415.495 113.616 415.517 113.626C415.549 113.641 415.473 113.608 415.412 113.505C415.219 113.18 416.072 114.112 414.259 117.976L423.312 122.224ZM415.306 103.576C414.499 103.576 413.03 103.619 411.665 104.294C410.883 104.681 409.655 105.518 409.006 107.131C408.332 108.804 408.673 110.324 409.06 111.234C409.694 112.725 410.861 113.62 411.234 113.904C411.814 114.346 412.435 114.714 412.968 114.997L417.644 106.157C417.544 106.104 417.458 106.055 417.389 106.012C417.318 105.968 417.289 105.946 417.294 105.949C417.297 105.952 417.319 105.969 417.354 105.999C417.388 106.029 417.447 106.083 417.522 106.163C417.629 106.277 417.983 106.665 418.262 107.32C418.564 108.029 418.888 109.362 418.282 110.866C417.701 112.31 416.626 112.997 416.097 113.259C415.237 113.683 414.676 113.576 415.306 113.576V103.576ZM412.968 114.997C413.591 115.326 414.149 115.565 414.483 115.709L418.443 106.527C418.096 106.377 417.874 106.279 417.644 106.157L412.968 114.997ZM414.483 115.709C414.732 115.816 414.802 115.848 414.838 115.866C414.873 115.883 414.678 115.793 414.413 115.586C414.12 115.357 413.682 114.937 413.34 114.278C412.988 113.599 412.878 112.935 412.878 112.418H422.878C422.878 110.354 421.884 108.735 420.579 107.713C419.709 107.032 418.652 106.616 418.443 106.527L414.483 115.709ZM412.878 112.418C412.878 112.628 412.842 114.398 411.9 115.98C411.205 117.145 409.633 118.941 404.868 118.941V128.941C412.961 128.941 417.894 125.455 420.49 121.099C422.838 117.159 422.878 113.167 422.878 112.418H412.878ZM404.868 118.941C404.395 118.941 403.957 118.925 403.551 118.896L402.839 128.871C403.493 128.917 404.17 128.941 404.868 128.941V118.941ZM403.607 118.9C402.125 118.778 401.379 118.647 400.857 118.49C400.429 118.36 399.999 118.167 399.299 117.673L393.534 125.845C394.923 126.824 396.311 127.563 397.965 128.063C399.525 128.534 401.124 128.729 402.782 128.866L403.607 118.9ZM399.295 117.671C398.465 117.086 398.094 116.356 397.908 115.678C397.812 115.329 397.775 115.021 397.763 114.822C397.757 114.726 397.758 114.665 397.758 114.65C397.758 114.642 397.758 114.647 397.757 114.665C397.757 114.675 397.756 114.687 397.755 114.704C397.754 114.712 397.754 114.721 397.753 114.731C397.753 114.736 397.752 114.741 397.752 114.747C397.752 114.75 397.751 114.752 397.751 114.755C397.751 114.757 397.751 114.759 397.751 114.76C397.751 114.762 397.751 114.764 392.766 114.37C387.782 113.976 387.781 113.979 387.781 113.981C387.781 113.982 387.781 113.984 387.781 113.985C387.781 113.989 387.78 113.992 387.78 113.995C387.78 114.002 387.779 114.009 387.779 114.016C387.778 114.03 387.776 114.046 387.775 114.063C387.773 114.097 387.771 114.135 387.769 114.179C387.765 114.265 387.761 114.371 387.759 114.494C387.755 114.739 387.759 115.057 387.782 115.433C387.827 116.177 387.951 117.188 388.266 118.332C388.902 120.642 390.357 123.607 393.538 125.847L399.295 117.671ZM393.724 119.278C394.995 119.03 396.393 118.531 397.604 117.628C398.777 116.753 400.338 115.021 400.338 112.418H390.338C390.338 110.71 391.363 109.808 391.626 109.612C391.926 109.388 392.039 109.418 391.808 109.463L393.724 119.278ZM400.338 112.418C400.338 109.076 397.865 107.236 396.524 106.527C394.958 105.698 393.139 105.337 391.405 105.337V115.337C391.842 115.337 391.99 115.441 391.848 115.366C391.772 115.326 391.46 115.151 391.123 114.73C390.761 114.276 390.338 113.48 390.338 112.418H400.338ZM391.405 105.337C389.67 105.337 387.852 105.698 386.285 106.527C384.944 107.236 382.471 109.076 382.471 112.418H392.471C392.471 113.48 392.048 114.276 391.686 114.73C391.349 115.151 391.037 115.326 390.961 115.366C390.819 115.441 390.967 115.337 391.405 115.337V105.337ZM382.471 112.418C382.471 115.281 384.334 117.069 385.579 117.891C386.913 118.771 388.452 119.226 389.877 119.404L391.117 109.481C390.807 109.442 390.834 109.377 391.088 109.545C391.254 109.654 392.471 110.538 392.471 112.418H382.471ZM390.497 114.443C385.499 114.312 385.499 114.31 385.499 114.309C385.499 114.309 385.499 114.308 385.499 114.307C385.499 114.306 385.499 114.304 385.499 114.303C385.499 114.301 385.499 114.299 385.499 114.297C385.499 114.293 385.499 114.291 385.499 114.29C385.499 114.288 385.499 114.291 385.499 114.299C385.498 114.316 385.497 114.351 385.493 114.404C385.487 114.51 385.475 114.684 385.453 114.91C385.407 115.367 385.323 116.01 385.171 116.725C384.836 118.298 384.305 119.593 383.693 120.299L391.25 126.848C393.511 124.239 394.492 120.968 394.952 118.805C395.198 117.651 395.331 116.633 395.404 115.896C395.441 115.525 395.463 115.219 395.476 114.994C395.483 114.881 395.487 114.788 395.49 114.718C395.492 114.682 395.493 114.653 395.494 114.628C395.494 114.616 395.494 114.606 395.495 114.597C395.495 114.592 395.495 114.588 395.495 114.584C395.495 114.582 395.495 114.58 395.495 114.578C395.495 114.578 395.495 114.576 395.495 114.576C395.495 114.575 395.495 114.573 390.497 114.443ZM387.471 118.573C382.899 118.573 382.046 117.154 381.905 116.927C381.475 116.237 381.481 115.431 381.481 114.361L371.481 114.358C371.481 114.897 371.228 118.698 373.416 122.213C375.893 126.191 380.535 128.574 387.471 128.573V118.573ZM377.48 119.259C378.733 119.003 380.115 118.5 381.311 117.594C382.475 116.713 384 114.989 384 112.418H374C374 110.731 375.002 109.828 375.275 109.621C375.58 109.391 375.703 109.415 375.482 109.46L377.48 119.259ZM384 112.418C384 109.076 381.528 107.236 380.186 106.527C378.62 105.698 376.801 105.337 375.067 105.337V115.337C375.505 115.337 375.653 115.442 375.51 115.366C375.434 115.326 375.123 115.151 374.786 114.73C374.423 114.276 374 113.48 374 112.418H384ZM375.067 105.337C373.332 105.337 371.514 105.698 369.948 106.527C368.606 107.236 366.134 109.076 366.134 112.418H376.134C376.134 113.48 375.711 114.276 375.348 114.73C375.011 115.151 374.7 115.326 374.624 115.366C374.481 115.442 374.629 115.337 375.067 115.337V105.337ZM366.134 112.418C366.134 115.021 367.694 116.753 368.867 117.628C370.078 118.531 371.477 119.03 372.748 119.278L374.663 109.463C374.433 109.418 374.546 109.388 374.846 109.612C375.109 109.808 376.134 110.71 376.134 112.418H366.134ZM373.705 114.37C368.76 115.108 368.76 115.105 368.759 115.102C368.759 115.101 368.759 115.097 368.758 115.095C368.758 115.091 368.757 115.087 368.757 115.084C368.755 115.076 368.754 115.069 368.753 115.062C368.752 115.048 368.75 115.037 368.749 115.027C368.746 115.007 368.745 114.994 368.744 114.988C368.743 114.975 368.744 114.987 368.746 115.019C368.75 115.086 368.753 115.223 368.739 115.404C368.709 115.787 368.615 116.221 368.411 116.609C368.23 116.954 367.38 118.583 362.623 118.678L362.824 128.676C370.4 128.524 375.041 125.499 377.268 121.253C378.268 119.345 378.607 117.499 378.709 116.175C378.761 115.503 378.755 114.931 378.733 114.501C378.721 114.285 378.706 114.102 378.691 113.956C378.683 113.883 378.676 113.819 378.669 113.765C378.665 113.738 378.662 113.714 378.659 113.692C378.658 113.68 378.656 113.67 378.655 113.66C378.654 113.655 378.653 113.65 378.653 113.646C378.652 113.644 378.652 113.64 378.652 113.639C378.651 113.636 378.651 113.632 373.705 114.37ZM366.04 119.935C365.559 119.509 365.064 118.525 364.817 116.952C364.708 116.254 364.675 115.609 364.671 115.14C364.669 114.909 364.674 114.733 364.678 114.627C364.68 114.574 364.682 114.54 364.683 114.526C364.683 114.52 364.684 114.518 364.683 114.522C364.683 114.524 364.683 114.528 364.682 114.532C364.682 114.535 364.682 114.537 364.682 114.541C364.682 114.542 364.682 114.544 364.681 114.546C364.681 114.546 364.681 114.548 364.681 114.548C364.681 114.55 364.681 114.551 359.698 114.138C354.715 113.725 354.715 113.726 354.715 113.728C354.715 113.728 354.715 113.73 354.715 113.731C354.715 113.733 354.714 113.735 354.714 113.738C354.714 113.742 354.713 113.747 354.713 113.753C354.712 113.764 354.711 113.776 354.71 113.791C354.708 113.819 354.706 113.854 354.703 113.895C354.698 113.976 354.692 114.082 354.687 114.21C354.676 114.466 354.667 114.813 354.671 115.231C354.679 116.058 354.735 117.206 354.938 118.5C355.315 120.908 356.333 124.694 359.407 127.419L366.04 119.935ZM360.318 119.099C361.743 118.921 363.282 118.466 364.616 117.586C365.861 116.764 367.724 114.976 367.724 112.113H357.724C357.724 110.234 358.941 109.35 359.107 109.24C359.361 109.072 359.388 109.138 359.078 109.177L360.318 119.099ZM367.724 112.113C367.724 108.772 365.251 106.932 363.91 106.222C362.343 105.393 360.525 105.032 358.79 105.032V115.032C359.228 115.032 359.376 115.137 359.234 115.061C359.158 115.021 358.846 114.847 358.509 114.426C358.147 113.972 357.724 113.175 357.724 112.113H367.724ZM379.96 164.377L379.329 183.717L389.323 184.043L389.955 164.703L379.96 164.377ZM382.141 179.382L376.21 182.263L380.579 191.258L386.511 188.377L382.141 179.382ZM378.395 191.761H381.874V181.761H378.395V191.761ZM383.153 191.594L385.271 191.034L382.714 181.367L380.596 181.927L383.153 191.594ZM382.865 191.072L385.285 191.632L387.54 181.889L385.12 181.329L382.865 191.072ZM386.413 191.761H389.741V181.761H386.413V191.761ZM392.677 182.714L389.612 180.489L383.738 188.582L386.804 190.807L392.677 182.714ZM391.675 184.535C391.675 184.295 391.675 184.131 391.675 184.028C391.675 183.976 391.675 183.939 391.675 183.915C391.675 183.903 391.675 183.894 391.675 183.888C391.675 183.885 391.675 183.883 391.675 183.882C391.675 183.881 391.675 183.881 391.675 183.88C391.675 183.88 391.675 183.88 391.675 183.88C391.675 183.88 391.675 183.88 391.675 183.88C391.675 183.88 391.675 183.88 391.675 183.88C391.675 183.88 391.675 183.88 391.675 183.88C391.675 183.88 391.675 183.88 391.675 183.88C391.675 183.88 391.675 183.88 391.675 183.88C391.675 183.88 391.675 183.88 386.675 183.88C381.675 183.88 381.675 183.88 381.675 183.88C381.675 183.88 381.675 183.88 381.675 183.88V183.88C381.675 183.88 381.675 183.88 381.675 183.88C381.675 183.88 381.675 183.88 381.675 183.88C381.675 183.881 381.675 183.881 381.675 183.882C381.675 183.883 381.675 183.885 381.675 183.888C381.675 183.894 381.675 183.903 381.675 183.915C381.675 183.939 381.675 183.976 381.675 184.028C381.675 184.131 381.675 184.295 381.675 184.535H391.675ZM391.498 185.197L394.859 172.885L385.212 170.251L381.851 182.563L391.498 185.197ZM355.475 173.088L358.977 185.262L368.588 182.497L365.085 170.323L355.475 173.088ZM363.783 183.88C358.783 183.88 358.783 183.88 358.783 183.88C358.783 183.88 358.783 183.88 358.783 183.88V183.88C358.783 183.88 358.783 183.88 358.783 183.88C358.783 183.88 358.783 183.88 358.783 183.88C358.783 183.881 358.783 183.881 358.783 183.882C358.783 183.883 358.783 183.885 358.783 183.888C358.783 183.894 358.783 183.903 358.783 183.915C358.783 183.939 358.783 183.976 358.783 184.028C358.783 184.131 358.783 184.295 358.783 184.535H368.783C368.783 184.295 368.783 184.131 368.783 184.028C368.783 183.976 368.783 183.939 368.783 183.915C368.783 183.903 368.783 183.894 368.783 183.888C368.783 183.885 368.783 183.883 368.783 183.882C368.783 183.881 368.783 183.881 368.783 183.88C368.783 183.88 368.783 183.88 368.783 183.88C368.783 183.88 368.783 183.88 368.783 183.88C368.783 183.88 368.783 183.88 368.783 183.88C368.783 183.88 368.783 183.88 368.783 183.88C368.783 183.88 368.783 183.88 368.783 183.88C368.783 183.88 368.783 183.88 368.783 183.88C368.783 183.88 368.783 183.88 363.783 183.88ZM361.283 180.205L357.955 182.125L362.954 190.787L366.282 188.866L361.283 180.205ZM360.454 191.456H363.783V181.456H360.454V191.456ZM364.91 191.327L367.33 190.767L365.076 181.025L362.655 181.585L364.91 191.327ZM364.924 190.73L367.042 191.29L369.599 181.622L367.481 181.062L364.924 190.73ZM368.321 191.456H371.8V181.456H368.321V191.456ZM373.891 181.914L368.293 179.338L364.112 188.422L369.71 190.998L373.891 181.914ZM371.196 183.608L370.165 164.663L360.18 165.206L361.21 184.151L371.196 183.608ZM250.431 24.5553C233.809 24.5553 218.515 28.4786 207.207 35.0811C196.02 41.6124 187.868 51.3686 187.868 63.1637H197.868C197.868 56.3974 202.602 49.3495 212.249 43.7169C221.774 38.1556 235.262 34.5553 250.431 34.5553V24.5553ZM187.868 63.1637C187.868 67.0084 189.147 70.7576 190.875 74.1473C192.618 77.5679 194.976 80.9264 197.499 84.0691C202.51 90.3092 208.67 96.2875 212.896 100.605L220.042 93.6108C215.548 89.0186 209.907 83.5502 205.297 77.8084C203.01 74.9601 201.103 72.1938 199.784 69.606C198.449 66.9872 197.868 64.8445 197.868 63.1637H187.868ZM212.896 100.605C214.083 101.819 215.147 102.925 215.928 103.962C216.308 104.468 216.526 104.835 216.635 105.068C216.753 105.319 216.65 105.213 216.65 104.838H226.65C226.65 101.885 225.008 99.3972 223.918 97.9489C222.684 96.309 221.157 94.7502 220.042 93.6108L212.896 100.605ZM216.65 104.838V109.543H226.65V104.838H216.65ZM216.65 109.543C216.65 111.788 217.495 113.828 219.099 115.362C220.536 116.736 222.287 117.423 223.729 117.808C226.546 118.562 230.074 118.629 233.162 118.629V108.629C229.892 108.629 227.664 108.509 226.314 108.148C225.673 107.977 225.738 107.874 226.01 108.134C226.448 108.553 226.65 109.155 226.65 109.543H216.65ZM267.7 118.629C270.788 118.629 274.316 118.562 277.133 117.808C278.575 117.423 280.326 116.736 281.764 115.362C283.367 113.828 284.213 111.788 284.213 109.543H274.213C274.213 109.155 274.414 108.553 274.853 108.134C275.125 107.874 275.19 107.977 274.548 108.148C273.198 108.509 270.97 108.629 267.7 108.629V118.629ZM284.213 109.543V104.838H274.213V109.543H284.213ZM284.213 104.838C284.213 105.595 283.803 105.631 284.793 104.501C285.205 104.03 285.731 103.497 286.411 102.833C287.041 102.218 287.874 101.425 288.653 100.646L281.588 93.5698C280.349 94.8069 278.506 96.5011 277.269 97.9141C276.062 99.2927 274.213 101.681 274.213 104.838H284.213ZM288.653 100.646C293.057 96.2496 299.009 90.303 303.849 84.0049C308.515 77.9341 312.994 70.4934 312.994 63.1637H302.994C302.994 66.8849 300.473 71.987 295.92 77.9111C291.542 83.6077 286.057 89.1079 281.588 93.5698L288.653 100.646ZM312.994 63.1637C312.994 51.3686 304.842 41.6123 293.656 35.0811C282.347 28.4786 267.054 24.5553 250.431 24.5553V34.5553C265.6 34.5553 279.088 38.1556 288.613 43.7169C298.261 49.3494 302.994 56.3974 302.994 63.1637H312.994ZM274.346 117.467L226.517 117.467V127.467L274.346 127.467V117.467ZM226.517 117.467C225.9 117.467 225.585 117.311 225.596 117.317C225.61 117.325 225.831 117.454 226.081 117.799C226.352 118.173 226.65 118.805 226.65 119.626H216.65C216.65 122.925 218.904 124.989 220.554 125.953C222.327 126.988 224.446 127.467 226.517 127.467V117.467ZM226.65 119.626C226.65 120.447 226.352 121.079 226.081 121.453C225.831 121.798 225.61 121.926 225.596 121.934C225.585 121.941 225.9 121.784 226.517 121.784V111.784C224.446 111.784 222.327 112.264 220.554 113.298C218.904 114.262 216.65 116.327 216.65 119.626H226.65ZM226.517 121.784L274.346 121.784V111.784L226.517 111.784V121.784ZM274.346 121.784C274.963 121.784 275.277 121.941 275.266 121.934C275.252 121.926 275.031 121.798 274.781 121.453C274.51 121.079 274.213 120.447 274.213 119.626H284.213C284.213 116.327 281.959 114.262 280.308 113.298C278.536 112.264 276.417 111.784 274.346 111.784V121.784ZM274.213 119.626C274.213 118.805 274.51 118.173 274.781 117.798C275.031 117.453 275.252 117.325 275.266 117.317C275.277 117.311 274.963 117.467 274.346 117.467V127.467C276.417 127.467 278.536 126.988 280.308 125.953C281.959 124.989 284.213 122.925 284.213 119.626H274.213ZM262.833 125.38L238.029 125.38V135.38L262.833 135.38V125.38ZM238.029 125.38C237.412 125.38 237.098 125.224 237.109 125.23C237.123 125.238 237.344 125.367 237.594 125.712C237.865 126.086 238.162 126.718 238.162 127.539H228.162C228.162 130.838 230.416 132.902 232.067 133.866C233.839 134.901 235.958 135.38 238.029 135.38V125.38ZM238.162 127.539C238.162 128.36 237.865 128.992 237.594 129.366C237.344 129.711 237.123 129.839 237.109 129.847C237.098 129.854 237.412 129.697 238.029 129.697V119.697C235.958 119.697 233.839 120.177 232.067 121.211C230.416 122.175 228.162 124.24 228.162 127.539H238.162ZM238.029 129.697H262.833V119.697H238.029V129.697ZM262.833 129.697C263.45 129.697 263.764 129.854 263.754 129.847C263.74 129.839 263.518 129.711 263.269 129.366C262.997 128.992 262.7 128.36 262.7 127.539H272.7C272.7 124.24 270.446 122.175 268.796 121.211C267.023 120.177 264.904 119.697 262.833 119.697V129.697ZM262.7 127.539C262.7 126.718 262.997 126.086 263.269 125.711C263.518 125.366 263.74 125.238 263.754 125.23C263.764 125.224 263.45 125.38 262.833 125.38V135.38C264.904 135.38 267.023 134.901 268.796 133.866C270.446 132.902 272.7 130.838 272.7 127.539H262.7ZM40.505 161.476C40.5051 169.687 46.1984 176.184 53.3747 180.35C60.6779 184.591 70.4367 187.053 80.9455 187.053V177.053C71.8811 177.053 63.9196 174.91 58.3959 171.702C52.7453 168.422 50.505 164.63 50.505 161.476H40.505ZM80.9455 187.053C86.867 187.053 92.5175 186.273 97.6127 184.852L94.9266 175.219C90.7461 176.385 86.0017 177.053 80.9455 177.053V187.053ZM92.1473 182.865C95.4848 187.727 100.929 191.48 107.229 194.006C113.589 196.556 121.158 197.999 129.205 197.999V187.999C122.311 187.999 116.019 186.757 110.95 184.725C105.821 182.668 102.268 179.939 100.392 177.206L92.1473 182.865ZM129.205 197.999C143.989 197.999 157.748 193.079 164.825 184.741L157.201 178.27C152.721 183.549 142.334 187.999 129.205 187.999V197.999ZM160.336 186.46C163.181 186.849 166.138 187.053 169.169 187.053V177.053C166.587 177.053 164.082 176.879 161.691 176.552L160.336 186.46ZM169.169 187.053C179.678 187.053 189.437 184.591 196.74 180.35C203.916 176.184 209.61 169.687 209.61 161.476H199.61C199.61 164.63 197.37 168.422 191.719 171.702C186.195 174.91 178.234 177.053 169.169 177.053V187.053ZM209.61 161.476C209.61 157.312 208.107 153.515 205.694 150.29L197.687 156.28C199.03 158.075 199.61 159.817 199.61 161.476H209.61ZM203.6 157.906C212.429 154.259 220.167 147.411 220.167 138.053H210.167C210.167 141.291 207.253 145.578 199.782 148.664L203.6 157.906ZM220.167 138.053C220.167 130.416 214.932 124.409 208.423 120.585C201.798 116.692 192.974 114.446 183.496 114.446V124.446C191.51 124.446 198.52 126.365 203.358 129.207C208.312 132.117 210.167 135.413 210.167 138.053H220.167ZM183.496 114.446C181.889 114.446 180.304 114.51 178.749 114.636L179.553 124.603C180.839 124.5 182.156 124.446 183.496 124.446V114.446ZM183.901 118.059C181.914 112.01 176.691 107.401 170.532 104.383C164.269 101.313 156.432 99.5602 148.056 99.5602V109.56C155.106 109.56 161.407 111.047 166.131 113.362C170.958 115.728 173.57 118.65 174.401 121.18L183.901 118.059ZM148.056 99.5602C138.426 99.5602 129.464 101.604 122.675 105.642L127.786 114.237C132.631 111.356 139.697 109.56 148.056 109.56V99.5602ZM127.085 105.296C119.309 102.19 110.027 100.423 100.135 100.423V110.423C108.878 110.423 116.887 111.991 123.376 114.583L127.085 105.296ZM100.135 100.423C87.1897 100.423 75.2254 103.452 66.3254 108.608C57.5542 113.689 50.8658 121.453 50.8658 131.069H60.8658C60.8658 126.521 64.0873 121.462 71.3382 117.261C78.4603 113.135 88.6304 110.423 100.135 110.423V100.423ZM50.8658 131.069C50.8658 136.752 52.3415 142.353 57.3849 147.84L64.7474 141.073C61.6629 137.717 60.8658 134.662 60.8658 131.069H50.8658ZM59.1648 139.832C54.1244 141.905 49.5861 144.784 46.2361 148.337C42.8842 151.892 40.505 156.379 40.505 161.476H50.505C50.505 159.634 51.3578 157.482 53.512 155.197C55.6683 152.91 58.9104 150.749 62.9675 149.081L59.1648 139.832ZM253.356 298.429L352.703 241.071L347.703 232.411L248.356 289.768L253.356 298.429ZM347.703 470.868L248.356 528.226L253.356 536.886L352.703 479.528L347.703 470.868ZM295.529 313.571V455.518H305.529V313.571H295.529ZM220.418 270.754L138.176 223.272L133.176 231.932L215.418 279.414L220.418 270.754ZM196.584 316.143V358.782H206.584V316.143H196.584ZM124.208 73.2276L0.723427 144.522L5.72343 153.182L129.208 81.8879L124.208 73.2276ZM247.693 1.9335L124.208 73.2276L129.208 81.8879L252.693 10.5938L247.693 1.9335ZM252.693 295.77L376.178 224.476L371.178 215.816L247.693 287.11L252.693 295.77ZM376.178 224.476L499.664 153.182L494.664 144.522L371.178 215.816L376.178 224.476ZM411.147 133.086L411.265 133.106L412.953 123.25L412.836 123.23L411.147 133.086ZM233.162 118.629L267.7 118.629V108.629L233.162 108.629V118.629Z" fill="white" mask="url(#path-1-inside-1_0_1)"/>
<path d="M0.499817 146.517L250.5 0.5L502 146.517V385.017L250.5 534L0.499817 389V146.517Z" fill="white"/>
<path fill-rule="evenodd" clip-rule="evenodd" d="M250.856 532.556V294.099L300.53 265.42L350.203 236.741L399.934 256.18L400.168 397.992L350.203 475.198L300.53 503.877L250.856 532.556ZM333.976 294.26L300.53 313.571V380.052V455.518L333.976 436.208L350.203 411.874V300.426L333.976 294.26Z" fill="#FCC61C"/>
<path d="M449.548 179.47L399.854 208.075L399.934 256.18L400.168 397.992L400.248 446.304L449.548 417.841V322.688L498.847 294.225V246.648L449.548 275.111V227.535L498.847 199.072V151.007L449.548 179.47Z" fill="#FCC61C"/>
<path d="M498.847 151.007L449.548 179.47L399.854 208.075M498.847 151.007V199.072L449.548 227.535V275.111L498.847 246.648V294.225L449.548 322.688V417.841L400.248 446.304L400.168 397.992M498.847 151.007L399.854 208.075M399.854 208.075L399.934 256.18M399.934 256.18L400.168 397.992M399.934 256.18L350.203 236.741L300.53 265.42L250.856 294.099V532.556L300.53 503.877L350.203 475.198L400.168 397.992M300.53 313.571L333.976 294.26L350.203 300.426V411.874L333.976 436.208L300.53 455.518V380.052V313.571Z" stroke="white" stroke-width="5"/>
<path d="M2.86102 389.378V150.921L52.5424 179.604L69.1029 205.713L85.9946 198.918L135.676 227.602V466.059L85.6634 437.184L85.9946 326.316L69.1029 333.128L52.5424 307.003V418.062L2.86102 389.378Z" fill="#2D5485"/>
<path fill-rule="evenodd" clip-rule="evenodd" d="M135.676 227.602V466.059L184.984 494.527V399.339L217.918 418.274L250.852 404.922V326.465L217.918 275.084L184.984 256.069L135.676 227.602ZM184.984 365.39V289.757L201.584 316.143V337.249V358.782L184.984 365.39Z" fill="#2D5485"/>
<path d="M250.852 294.099V326.465M135.676 227.602L85.9946 198.918L69.1029 205.713L52.5424 179.604L2.86102 150.921V389.378L52.5424 418.062V307.003L69.1029 333.128L85.9946 326.316L85.6634 437.184L135.676 466.059M135.676 227.602V466.059M135.676 227.602L184.984 256.069L217.918 275.084L250.852 326.465M135.676 466.059L184.984 494.527V399.339L217.918 418.274L250.852 404.922V326.465M184.984 289.757V365.39L201.584 358.782V337.249V316.143L184.984 289.757Z" stroke="white" stroke-width="5"/>
<path d="M3.22345 148.852L126.708 220.146L250.193 148.852L126.708 77.5578L64.966 113.205L3.22345 148.852Z" fill="#4E81C3"/>
<path d="M373.679 77.5577L250.193 6.26362L188.451 41.9107L126.708 77.5578L250.193 148.852L311.936 113.205L373.679 77.5577Z" fill="#FFD244"/>
<path d="M126.708 220.146L250.194 291.44L311.936 255.793L373.679 220.146L250.193 148.852L126.708 220.146Z" fill="#E0432F"/>
<path d="M497.164 148.852L373.679 77.5577L311.936 113.205L250.193 148.852L373.679 220.146L435.421 184.499L497.164 148.852Z" fill="#1CB330"/>
<path d="M250.298 265.032L256.686 268.193L244.401 268.193L250.298 265.032ZM249.66 259.585C249.56 259.551 249.457 259.516 249.351 259.48C247.689 258.915 245.294 258.061 242.41 256.92C236.638 254.635 228.941 251.214 221.253 246.673C205.858 237.579 190.725 224.14 190.725 206.422C190.725 187.17 217.398 171.611 250.2 171.611C283.003 171.611 309.675 187.17 309.675 206.422C309.675 224.14 294.542 237.579 279.147 246.673C271.459 251.214 263.762 254.635 257.99 256.92C255.107 258.061 252.711 258.915 251.049 259.48C250.91 259.528 250.775 259.573 250.646 259.616L250.102 259.347L249.66 259.585Z" stroke="white" stroke-width="6"/>
<path d="M358.79 110.032C356.618 110.032 354.857 110.964 354.857 112.113C354.857 113.009 355.928 113.773 357.429 114.066L353.31 121.764C353.31 121.764 349.886 123.228 347.073 123.573C346.521 123.615 345.939 123.637 345.327 123.637C332.469 123.637 332.317 113.073 332.317 112.113C332.317 111.423 332.864 111.188 333.732 110.813C334.073 110.666 334.463 110.498 334.889 110.272C336.402 109.472 337.763 108.272 334.889 108.272C332.015 108.272 327.174 110.769 331.41 119.795C331.41 119.795 329.594 127.638 331.41 128.598C332.452 129.149 335.239 128.672 338.197 128.165C340.392 127.79 342.68 127.398 344.419 127.398C348.504 127.398 353.496 130.919 353.496 130.919L353.496 142.602L348.504 150.525L332.317 183.575L326.72 186.456L330.199 186.456L332.317 185.896L334.738 186.456L338.066 186.456C338.066 186.456 334.738 185.016 334.738 184.535C334.738 184.055 355.812 155.471 355.812 155.471L358.231 164.201L364.638 150.525C364.638 149.004 362.724 142.602 362.724 142.602C362.724 142.602 362.724 135.92 362.724 134.52C362.724 133.119 361.929 131.512 366.959 131.559C371.989 131.606 368.949 131.63 369.772 131.761L369.772 142.907L364.638 150.525L358.231 164.201L348.594 183.88L342.997 186.761L346.476 186.761L348.594 186.2L351.014 186.761L354.342 186.761C354.342 186.761 351.014 185.32 351.014 184.84C351.014 184.619 355.47 178.377 360.28 171.705C361.924 169.424 363.61 167.093 365.173 164.935C366.507 163.092 367.752 161.375 368.806 159.924C370.749 157.246 375.098 155.471 375.098 155.471C375.098 155.471 379.437 156.93 381.37 159.592C382.41 161.026 383.639 162.72 384.957 164.54C386.577 166.776 388.331 169.202 390.036 171.568C394.799 178.177 399.181 184.316 399.181 184.535C399.181 185.016 395.853 186.456 395.853 186.456L399.181 186.456L401.601 185.896L403.719 186.456L407.199 186.456L401.601 183.575L392.07 164.115L385.415 150.525L380.423 142.907L380.423 132.065C381.246 131.935 378.358 131.956 383.236 131.864C388.114 131.771 387.471 133.333 387.471 134.824C387.471 136.316 387.471 142.907 387.471 142.907C387.471 142.907 385.415 149.004 385.415 150.525L392.07 164.115L394.43 155.471C394.43 155.471 415.457 184.36 415.457 184.84C415.457 185.32 412.129 186.761 412.129 186.761L415.457 186.761L417.878 186.2L419.996 186.761L423.475 186.761L417.878 183.88L401.691 150.829L396.699 142.907L396.699 130.919C396.699 130.919 401.739 127.398 405.824 127.398C407.552 127.398 409.81 127.784 411.991 128.158L412.034 128.165L412.109 128.178C415.039 128.68 417.752 129.145 418.785 128.598C420.601 127.638 418.785 120.1 418.785 120.1C423.021 111.073 418.18 108.576 415.306 108.576C412.432 108.576 413.793 109.777 415.306 110.577C415.732 110.802 416.122 110.971 416.463 111.118C417.331 111.492 417.878 111.728 417.878 112.418C417.878 113.378 417.726 123.941 404.868 123.941C404.283 123.941 403.725 123.921 403.195 123.883C400.054 123.623 398.505 123.232 396.416 121.759C392.405 118.934 392.766 114.37 392.766 114.37C394.267 114.077 395.338 113.313 395.338 112.418C395.338 111.268 393.577 110.337 391.405 110.337C389.232 110.337 387.471 111.268 387.471 112.418C387.471 113.401 388.762 114.226 390.497 114.442C390.497 114.442 390.345 120.258 387.471 123.573C375.962 123.573 376.481 115.969 376.481 114.36C377.955 114.059 379 113.303 379 112.418C379 111.268 377.239 110.337 375.067 110.337C372.895 110.337 371.134 111.268 371.134 112.418C371.134 113.313 372.204 114.077 373.705 114.37C373.705 114.37 375.057 123.43 362.724 123.677C359.168 120.526 359.698 114.138 359.698 114.138C361.433 113.921 362.724 113.097 362.724 112.113C362.724 110.964 360.963 110.032 358.79 110.032Z" fill="white"/>
<path d="M390.036 171.568C388.331 169.202 386.577 166.776 384.957 164.54L384.326 183.88L378.395 186.761L381.874 186.761L383.992 186.2L386.413 186.761L389.741 186.761L386.675 184.535C386.675 184.055 386.675 183.88 386.675 183.88L390.036 171.568Z" fill="white"/>
<path d="M365.173 164.935C363.61 167.093 361.924 169.424 360.28 171.705L363.783 183.88C363.783 183.88 363.783 184.055 363.783 184.535L360.454 186.456L363.783 186.456L366.203 185.896L368.321 186.456L371.8 186.456L366.203 183.88L365.173 164.935Z" fill="white"/>
<path d="M364.638 150.525C364.638 149.004 362.724 142.602 362.724 142.602C362.724 142.602 362.724 135.92 362.724 134.52C362.724 133.119 361.929 131.512 366.959 131.559C371.989 131.606 368.949 131.63 369.772 131.761L369.772 142.907L364.638 150.525ZM364.638 150.525L358.231 164.201M385.415 150.525L380.423 142.907L380.423 132.065C381.246 131.935 378.358 131.956 383.236 131.864C388.114 131.771 387.471 133.333 387.471 134.824C387.471 136.316 387.471 142.907 387.471 142.907C387.471 142.907 385.415 149.004 385.415 150.525ZM385.415 150.525L392.07 164.115M412.034 128.165L411.991 128.158M412.034 128.165L412.109 128.178M412.034 128.165C412.059 128.17 412.084 128.174 412.109 128.178M412.034 128.165C412.02 128.163 412.006 128.16 411.991 128.158M358.231 164.201L348.594 183.88L342.997 186.761L346.476 186.761L348.594 186.2L351.014 186.761L354.342 186.761C354.342 186.761 351.014 185.32 351.014 184.84C351.014 184.619 355.47 178.377 360.28 171.705M358.231 164.201L355.812 155.471C355.812 155.471 334.738 184.055 334.738 184.535C334.738 185.016 338.066 186.456 338.066 186.456L334.738 186.456L332.317 185.896L330.199 186.456L326.72 186.456L332.317 183.575L348.504 150.525L353.496 142.602L353.496 130.919C353.496 130.919 348.504 127.398 344.419 127.398C342.68 127.398 340.392 127.79 338.197 128.165C335.239 128.672 332.452 129.149 331.41 128.598C329.594 127.638 331.41 119.795 331.41 119.795C327.174 110.769 332.015 108.272 334.889 108.272C337.763 108.272 336.402 109.472 334.889 110.272C334.463 110.498 334.073 110.666 333.732 110.813C332.864 111.188 332.317 111.423 332.317 112.113C332.317 113.073 332.469 123.637 345.327 123.637C345.939 123.637 346.521 123.615 347.073 123.573C349.886 123.228 353.31 121.764 353.31 121.764L357.429 114.066C355.928 113.773 354.857 113.009 354.857 112.113C354.857 110.964 356.618 110.032 358.79 110.032C360.963 110.032 362.724 110.964 362.724 112.113C362.724 113.097 361.433 113.921 359.698 114.138C359.698 114.138 359.168 120.526 362.724 123.677C375.057 123.43 373.705 114.37 373.705 114.37C372.204 114.077 371.134 113.313 371.134 112.418C371.134 111.268 372.895 110.337 375.067 110.337C377.239 110.337 379 111.268 379 112.418C379 113.303 377.955 114.059 376.481 114.36C376.481 115.969 375.962 123.573 387.471 123.573C390.345 120.258 390.497 114.442 390.497 114.442C388.762 114.226 387.471 113.401 387.471 112.418C387.471 111.268 389.232 110.337 391.405 110.337C393.577 110.337 395.338 111.268 395.338 112.418C395.338 113.313 394.267 114.077 392.766 114.37C392.766 114.37 392.405 118.934 396.416 121.759C398.505 123.232 400.054 123.623 403.195 123.883C403.725 123.921 404.283 123.941 404.868 123.941C417.726 123.941 417.878 113.378 417.878 112.418C417.878 111.728 417.331 111.492 416.463 111.118C416.122 110.971 415.732 110.802 415.306 110.577C413.793 109.777 412.432 108.576 415.306 108.576C418.18 108.576 423.021 111.073 418.785 120.1C418.785 120.1 420.601 127.638 418.785 128.598C417.752 129.145 415.039 128.68 412.109 128.178M360.28 171.705C361.924 169.424 363.61 167.093 365.173 164.935M360.28 171.705L363.783 183.88C363.783 183.88 363.783 184.055 363.783 184.535L360.454 186.456L363.783 186.456L366.203 185.896L368.321 186.456L371.8 186.456L366.203 183.88L365.173 164.935M390.036 171.568C394.799 178.177 399.181 184.316 399.181 184.535C399.181 185.016 395.853 186.456 395.853 186.456L399.181 186.456L401.601 185.896L403.719 186.456L407.199 186.456L401.601 183.575L392.07 164.115M390.036 171.568C388.331 169.202 386.577 166.776 384.957 164.54M390.036 171.568L386.675 183.88C386.675 183.88 386.675 184.055 386.675 184.535L389.741 186.761L386.413 186.761L383.992 186.2L381.874 186.761L378.395 186.761L384.326 183.88L384.957 164.54M392.07 164.115L394.43 155.471C394.43 155.471 415.457 184.36 415.457 184.84C415.457 185.32 412.129 186.761 412.129 186.761L415.457 186.761L417.878 186.2L419.996 186.761L423.475 186.761L417.878 183.88L401.691 150.829L396.699 142.907L396.699 130.919C396.699 130.919 401.739 127.398 405.824 127.398C407.552 127.398 409.81 127.784 411.991 128.158M365.173 164.935C366.507 163.092 367.752 161.375 368.806 159.924C370.749 157.246 375.098 155.471 375.098 155.471C375.098 155.471 379.437 156.93 381.37 159.592C382.41 161.026 383.639 162.72 384.957 164.54" stroke="white" stroke-width="3"/>
<mask id="path-12-inside-2_0_1" fill="white">
<path d="M250.431 29.5553C218.64 29.5553 192.868 44.6023 192.868 63.1637C192.868 74.2146 207.748 88.198 216.469 97.1081C218.771 99.4607 221.65 102.439 221.65 104.838L221.65 109.543C221.65 113.255 226.804 113.629 233.162 113.629L250.431 113.629L258.512 113.629L267.7 113.629C274.058 113.629 279.213 113.255 279.213 109.543L279.213 104.838C279.213 102.439 282.091 100.133 285.12 97.1081C293.993 88.2494 307.994 74.2146 307.994 63.1637C307.994 44.6023 282.222 29.5553 250.431 29.5553Z"/>
<path d="M274.346 122.467L226.517 122.467C223.829 122.467 221.65 121.195 221.65 119.626C221.65 118.056 223.829 116.784 226.517 116.784L274.346 116.784C277.034 116.784 279.213 118.056 279.213 119.626C279.213 121.195 277.034 122.467 274.346 122.467Z"/>
<path d="M262.833 130.38L238.029 130.38C235.341 130.38 233.162 129.108 233.162 127.539C233.162 125.969 235.341 124.697 238.029 124.697L262.833 124.697C265.521 124.697 267.7 125.969 267.7 127.539C267.7 129.108 265.521 130.38 262.833 130.38Z"/>
</mask>
<path d="M250.431 93.777L247.819 92.2854C247.138 92.6826 246.757 93.2185 246.757 93.777L250.431 93.777ZM260.88 87.6764L263.493 89.168L267.115 87.0533L262.472 85.7646L260.88 87.6764ZM239.781 81.8199L238.189 79.9081L231.302 81.8199L238.189 83.7317L239.781 81.8199ZM260.88 75.9634L262.472 77.8752L269.086 76.0392L262.577 74.0819L260.88 75.9634ZM239.781 69.6188L238.061 67.7444L231.882 69.635L238.084 71.5002L239.781 69.6188ZM254.105 113.629L254.105 93.777L246.757 93.777L246.757 113.629L254.105 113.629ZM253.044 95.2686L263.493 89.168L258.267 86.1849L247.819 92.2854L253.044 95.2686ZM262.472 85.7646L241.374 79.9081L238.189 83.7317L259.288 89.5883L262.472 85.7646ZM241.374 83.7317L262.472 77.8752L259.288 74.0515L238.189 79.9081L241.374 83.7317ZM262.577 74.0819L241.479 67.7374L238.084 71.5002L259.183 77.8448L262.577 74.0819ZM241.502 71.4932L262.6 65.0381L259.16 61.2893L238.061 67.7444L241.502 71.4932ZM216.469 97.1081L210.071 99.1953L210.071 99.1953L216.469 97.1081ZM285.12 97.1081L278.759 94.9843L278.759 94.9843L285.12 97.1081ZM200.217 63.1637C200.217 46.9005 222.776 33.798 250.431 33.798L250.431 25.3127C214.504 25.3127 185.52 42.3041 185.52 63.1637L200.217 63.1637ZM250.431 33.798C278.087 33.798 300.646 46.9005 300.646 63.1637L315.343 63.1637C315.343 42.304 286.358 25.3127 250.431 25.3127L250.431 33.798ZM222.867 95.0209C218.396 90.4532 212.714 84.9447 208.065 79.1544C203.367 73.3023 200.217 67.7353 200.217 63.1637L185.52 63.1637C185.52 69.643 189.81 76.5931 194.731 82.723C199.703 88.9147 205.821 94.8529 210.071 99.1953L222.867 95.0209ZM300.646 63.1637C300.646 67.7871 297.654 73.4005 293.168 79.2372C288.74 84.9984 283.214 90.5366 278.759 94.9843L291.482 99.2319C295.9 94.8209 301.811 88.9123 306.602 82.6787C311.334 76.5206 315.343 69.5911 315.343 63.1637L300.646 63.1637ZM214.301 104.838L214.301 109.543L228.998 109.543L228.998 104.838L214.301 104.838ZM286.561 109.543L286.561 104.838L271.864 104.838L271.864 109.543L286.561 109.543ZM267.7 117.872C270.71 117.872 275.174 117.833 278.931 116.828C281.049 116.261 283.127 115.348 284.599 113.941C286.041 112.562 286.561 111.033 286.561 109.543L271.864 109.543C271.864 109.91 271.74 109.82 272.017 109.555C272.149 109.429 272.316 109.319 272.486 109.235C272.647 109.156 272.757 109.127 272.751 109.129C272.687 109.146 272.296 109.233 271.327 109.299C270.381 109.363 269.207 109.387 267.7 109.387L267.7 117.872ZM214.301 109.543C214.301 111.033 214.822 112.562 216.264 113.941C217.735 115.348 219.814 116.261 221.932 116.828C225.688 117.833 230.153 117.872 233.162 117.872L233.162 109.387C231.656 109.387 230.481 109.363 229.535 109.299C228.566 109.233 228.176 109.146 228.112 109.129C228.106 109.127 228.215 109.156 228.376 109.235C228.546 109.319 228.713 109.429 228.845 109.555C229.122 109.82 228.998 109.91 228.998 109.543L214.301 109.543ZM278.759 94.9843C277.489 96.2523 275.687 97.9061 274.472 99.2937C273.172 100.779 271.864 102.661 271.864 104.838L286.561 104.838C286.561 104.616 286.693 104.145 287.589 103.121C288.571 102 289.722 100.989 291.482 99.2319L278.759 94.9843ZM210.071 99.1953C211.244 100.394 212.351 101.541 213.183 102.646C214.057 103.808 214.301 104.512 214.301 104.838L228.998 104.838C228.998 102.764 227.803 100.78 226.662 99.2647C225.479 97.6928 223.996 96.1753 222.867 95.0209L210.071 99.1953ZM226.517 126.71L274.346 126.71L274.346 118.225L226.517 118.225L226.517 126.71ZM274.346 112.541L226.517 112.541L226.517 121.027L274.346 121.027L274.346 112.541ZM238.029 134.623L262.833 134.623L262.833 126.138L238.029 126.138L238.029 134.623ZM262.833 120.454L238.029 120.454L238.029 128.94L262.833 128.94L262.833 120.454ZM275.049 127.539C275.049 123.671 269.657 120.454 262.833 120.454L262.833 128.94C261.385 128.94 260.352 128.268 260.352 127.539L275.049 127.539ZM262.833 134.623C269.657 134.623 275.049 131.406 275.049 127.539L260.352 127.539C260.352 126.81 261.385 126.138 262.833 126.138L262.833 134.623ZM225.814 127.539C225.814 131.406 231.206 134.623 238.029 134.623L238.029 126.138C239.477 126.138 240.511 126.81 240.511 127.539L225.814 127.539ZM240.511 127.539C240.511 128.268 239.477 128.94 238.029 128.94L238.029 120.454C231.205 120.454 225.814 123.671 225.814 127.539L240.511 127.539ZM286.561 119.626C286.561 115.758 281.17 112.541 274.346 112.541L274.346 121.027C272.898 121.027 271.864 120.355 271.864 119.626L286.561 119.626ZM274.346 126.71C281.17 126.71 286.561 123.493 286.561 119.626L271.864 119.626C271.864 118.897 272.898 118.225 274.346 118.225L274.346 126.71ZM214.301 119.626C214.301 123.493 219.693 126.71 226.517 126.71L226.517 118.225C227.965 118.225 228.998 118.897 228.998 119.626L214.301 119.626ZM228.998 119.626C228.998 120.355 227.965 121.027 226.517 121.027L226.517 112.541C219.693 112.541 214.301 115.758 214.301 119.626L228.998 119.626ZM258.512 117.872L267.7 117.872L267.7 109.387L258.512 109.387L258.512 117.872ZM233.162 117.872L250.431 117.872L250.431 109.387L233.162 109.387L233.162 117.872ZM250.431 117.872L258.512 117.872L258.512 109.387L250.431 109.387L250.431 117.872Z" fill="white" mask="url(#path-12-inside-2_0_1)"/>
<path d="M99.1162 179.384L97.9031 177.617L94.938 178.444C90.7061 179.624 85.9629 180.286 80.9455 180.286C63.0796 180.286 48.5669 171.874 48.5669 161.476C48.5669 155.168 54.4655 149.341 62.8423 145.897L65.0294 144.997L63.7708 143.628C60.0144 139.541 58.9277 135.524 58.9277 131.069C58.9277 117.876 77.3865 107.191 100.135 107.191C108.81 107.191 116.851 108.742 123.489 111.393L125.621 112.245L127.427 111.171C132.634 108.074 139.839 106.328 148.056 106.328C161.947 106.328 173.586 112.167 176.143 119.949L176.686 121.603L179.575 121.37C180.855 121.267 182.164 121.214 183.496 121.214C199.246 121.214 212.105 128.724 212.105 138.053C212.105 143.764 207.279 148.803 199.909 151.847L197.901 152.677L198.88 153.986C200.595 156.279 201.548 158.81 201.548 161.476C201.548 171.874 187.035 180.286 169.169 180.286C166.602 180.286 164.108 180.112 161.719 179.786L159.34 179.46L158.264 180.728C152.976 186.958 141.942 191.231 129.205 191.231C115.57 191.231 103.886 186.333 99.1162 179.384Z" stroke="white" stroke-width="5"/>
</svg>
